<?xml version="1.0" encoding="utf-8"?><svg xmlns="http://www.w3.org/2000/svg" xmlns:xlink="http://www.w3.org/1999/xlink"><symbol viewBox="0 0 512 512" id="appl-item1"><path d="M220.2 335.4c-1.9 0-3.7-.6-5.3-1.8l-81.7-64.5-100.5 12.3c-3.2.4-6.4-1.1-8.1-3.8l-18-27.3c-1.3-2-1.7-4.4-1.2-6.7s2-4.2 4.1-5.4L362.1 36.9c.6-.3 1.2-.6 1.8-.8 1.4-.4 35.1-10 55.1 15.6 16.6 21.2 46.5 79.8 49.2 85.1 1.7 2.9 11 19.4 6.5 36.6-2.7 10.5-9.8 19-21.1 25-31.5 17-227.2 134.6-229.2 135.8-1.2.8-2.7 1.2-4.2 1.2zm-84.5-83.6c1.9 0 3.8.6 5.3 1.8l79.9 63c31.7-19 195.5-117.3 224.8-133.1 7-3.8 11.2-8.5 12.7-14.4 2.9-11.3-4.6-23.5-4.7-23.6-.1-.2-.3-.5-.4-.7-.3-.6-31.7-62.2-47.6-82.6-11.6-14.8-31.7-11-36.1-10L25.8 248.5l10.1 15.4 98.8-12c.3-.1.7-.1 1-.1z"/><path d="M105 388.1c-.7 0-1.4-.1-2.1-.3-2.2-.5-4.1-2-5.2-3.9l-39.3-66c-1.2-2-1.5-4.4-.9-6.7s2.2-4.1 4.2-5.2l39.3-20.7c4.2-2.2 9.3-.6 11.5 3.6 2.2 4.2.6 9.3-3.6 11.5L77.6 317l30.4 50.9 72-43.6c4-2.4 9.2-1.1 11.7 2.9s1.1 9.2-2.9 11.7l-79.3 48c-1.4.8-2.9 1.2-4.5 1.2zm202.5-66.9c-17.5 0-33-11.9-40.5-20.6l12.9-11.1c.9 1 21.1 23.8 40.4 10.4 22.9-15.8 24.8-24.1 20.2-48.3l16.7-3.1c5.4 29.1 2.9 44.6-27.3 65.4-7.5 5.2-15.2 7.3-22.4 7.3zm174.2 166.9c-4.7 0-8.5-3.8-8.5-8.5V292.9c0-4.7 3.8-8.5 8.5-8.5s8.5 3.8 8.5 8.5v186.7c0 4.7-3.8 8.5-8.5 8.5z"/><path d="M342.2 394.8c-11.7 0-33.1-8-38.5-39.1-5.7-33-7-41.3-7.1-41.7-.8-4.6 2.4-9 7-9.7 4.6-.7 9 2.4 9.8 7 0 .1 1.4 8.6 7.1 41.5 1.9 11.1 6.4 18.7 13.3 22.5 4.6 2.5 8.7 2.5 8.8 2.5h134.5c4.7 0 8.5 3.8 8.5 8.5s-3.8 8.5-8.5 8.5H342.2z"/></symbol><symbol viewBox="0 0 512 512" id="appl-item10"><path d="M257 492.4c-62.2 0-120.7-24.2-164.6-68.2S24.2 321.8 24.2 259.6C24.2 197.4 48.4 139 92.4 95S194.8 26.8 257 26.8c62.2 0 120.7 24.2 164.6 68.2s68.2 102.4 68.2 164.6c0 62.2-24.2 120.7-68.2 164.6S319.2 492.4 257 492.4zm0-448.6c-119 0-215.8 96.8-215.8 215.8 0 119 96.8 215.8 215.8 215.8 119 0 215.8-96.8 215.8-215.8.1-119-96.8-215.8-215.8-215.8z"/><path d="M131.8 283.1c4.7 2.5 11.9 5 19.3 5 8 0 12.2-3.4 12.2-8.6 0-5-3.7-7.8-12.9-11.2-12.8-4.6-21.1-12-21.1-23.6 0-13.6 11-24 29.1-24 8.7 0 15.1 1.9 19.6 4l-3.9 14.6c-3.1-1.5-8.6-3.8-16.1-3.8s-11.2 3.6-11.2 7.7c0 5.1 4.3 7.3 14.3 11.2 13.6 5.2 20 12.5 20 23.8 0 13.4-9.9 24.7-31.1 24.7-8.8 0-17.5-2.4-21.8-4.9l3.6-14.9zm76-46h-20.7v-15.2h59.2v15.2h-21v64.6h-17.5v-64.6zM322.7 261c0 26.2-15.3 42-37.8 42-22.8 0-36.2-17.9-36.2-40.6 0-23.9 14.7-41.8 37.5-41.8 23.5 0 36.5 18.4 36.5 40.4zm-55.7 1c0 15.6 7.1 26.6 18.7 26.6 11.8 0 18.5-11.6 18.5-27.1 0-14.3-6.6-26.6-18.6-26.6-11.7 0-18.6 11.6-18.6 27.1zm67.1-39c5.4-.9 12.9-1.7 23.5-1.7 10.7 0 18.4 2.1 23.5 6.4 4.9 4 8.2 10.7 8.2 18.5 0 7.8-2.5 14.4-7.1 18.9-5.9 5.8-14.7 8.4-25 8.4-2.3 0-4.3-.1-5.9-.4v28.5h-17.2V223zm17.2 36.2c1.5.4 3.3.5 5.8.5 9.3 0 15-4.9 15-13 0-7.3-4.9-11.7-13.6-11.7-3.5 0-5.9.4-7.2.7v23.5z"/></symbol><symbol viewBox="0 0 512 512" id="appl-item11"><path d="M499.512 111.811h-34.551l29.33-27.236a12.487 12.487 0 0 0-8.498-21.639H87.942c-6.897 0-12.488 5.592-12.488 12.488v178.347c0 6.896 5.591 12.488 12.488 12.488h57.479v42.387c0 6.896 5.591 12.488 12.488 12.488h28.669v15.636c0 25.454-20.708 46.161-46.161 46.161H79.851v-28.669c0-6.896-5.591-12.488-12.488-12.488H12.488C5.591 341.774 0 347.366 0 354.262v82.315c0 6.896 5.591 12.488 12.488 12.488h54.876c6.897 0 12.488-5.592 12.488-12.488v-28.67h60.566c39.225 0 71.137-31.913 71.137-71.137v-15.636h28.67c6.897 0 12.488-5.592 12.488-12.488v-42.387h191.925c6.897 0 12.488-5.592 12.488-12.488V219.1h42.387c6.897 0 12.488-5.592 12.488-12.488v-82.313c-.001-6.896-5.592-12.488-12.489-12.488zM54.876 424.091h-29.9v-57.339h29.901v57.339zM227.735 296.16h-57.339v-29.9h57.339v29.9zm204.413-54.876H100.429v-64.197h289.33c3.152 0 6.188-1.191 8.498-3.337l33.891-31.469v99.003zm-47.293-89.174H100.429V87.912h353.562l-69.136 64.198zm102.169 42.015h-29.901v-57.339h29.901v57.339z"/></symbol><symbol viewBox="0 0 512.001 512.001" id="appl-item12"><path d="M506.739 259.874a11.177 11.177 0 0 0-10.83-.559l-74.234 36.315c-5.546 2.713-7.843 9.408-5.129 14.954 2.711 5.545 9.406 7.842 14.954 5.129l58.143-28.444v135.647L431.5 394.473c-5.55-2.714-12.243-.417-14.954 5.13-2.714 5.546-.417 12.241 5.129 14.954l74.234 36.315a11.18 11.18 0 0 0 16.092-10.042V269.356a11.178 11.178 0 0 0-5.262-9.482zM126.14 153.384c-20.214 0-36.659 16.445-36.659 36.659s16.445 36.658 36.659 36.658 36.658-16.444 36.658-36.658-16.444-36.659-36.658-36.659zm0 53.196c-9.119 0-16.537-7.418-16.537-16.536s7.418-16.537 16.537-16.537c9.118 0 16.536 7.418 16.536 16.537 0 9.118-7.418 16.536-16.536 16.536z"/><path d="M389.724 250.531h-23.905c26.589-20.152 43.805-52.058 43.805-87.918 0-60.807-49.47-110.276-110.276-110.276-52.811 0-97.061 37.318-107.789 86.967-15.17-19.514-38.845-32.106-65.419-32.106-45.682 0-82.846 37.164-82.846 82.845 0 23.84 10.125 45.359 26.297 60.487h-14.47c-6.173 0-11.179 5.005-11.179 11.179v57.744H11.179C5.006 319.452 0 324.457 0 330.631v48.931c0 6.174 5.006 11.179 11.179 11.179h32.763v57.744c0 6.174 5.006 11.179 11.179 11.179h334.603c6.173 0 11.179-5.005 11.179-11.179V261.71c0-6.174-5.005-11.179-11.179-11.179zM43.942 368.385H22.358v-26.574h21.584v26.574zm255.405-293.69c48.479 0 87.918 39.439 87.918 87.918 0 48.479-39.438 87.918-87.918 87.918-48.478 0-87.918-39.439-87.918-87.918s39.439-87.918 87.918-87.918zm-95.265 143.409a111.111 111.111 0 0 0 28.774 32.427h-50.181c9.496-8.882 16.906-19.963 21.407-32.427zm-138.43-28.06c0-33.352 27.135-60.487 60.488-60.487 33.354 0 60.487 27.135 60.487 60.487 0 33.352-27.134 60.487-60.487 60.487s-60.488-27.135-60.488-60.487zm312.894 247.264H66.3V272.889h312.245v164.419z"/><path d="M299.347 109.598c-29.232 0-53.015 23.782-53.015 53.015 0 29.232 23.782 53.015 53.015 53.015s53.016-23.782 53.016-53.015-23.782-53.015-53.016-53.015zm0 83.672c-16.904 0-30.657-13.752-30.657-30.657s13.753-30.657 30.657-30.657c16.905 0 30.658 13.753 30.658 30.657 0 16.903-13.753 30.657-30.658 30.657zm-40.143 118.823H123.922c-5.557 0-10.061 4.504-10.061 10.061v65.888c0 5.557 4.504 10.061 10.061 10.061h135.282c5.557 0 10.061-4.504 10.061-10.061v-65.888c.001-5.557-4.503-10.061-10.061-10.061zm-10.061 65.888h-115.16v-45.766h115.16v45.766z"/><circle cx="324.469" cy="334.599" r="12.442"/><circle cx="324.469" cy="375.603" r="12.442"/></symbol><symbol viewBox="0 0 512 512" id="appl-item13"><path d="M503.686 326.871a22.056 22.056 0 0 0-27.18-.29c-35.597 27.194-78.143 41.567-123.041 41.567-12.218 0-24.465-1.1-36.401-3.268-4.761-.868-9.317 2.291-10.181 7.051a8.756 8.756 0 0 0 7.051 10.181 221.695 221.695 0 0 0 39.53 3.55c48.774 0 94.997-15.617 133.671-45.162a4.564 4.564 0 0 1 5.624.059 4.561 4.561 0 0 1 1.303 5.469c-19.069 41.693-49.47 77.047-87.915 102.238-39.456 25.851-85.352 39.517-132.724 39.517-133.718 0-242.506-108.788-242.506-242.506 0-47.375 13.665-93.27 39.517-132.723 25.191-38.447 60.544-68.847 102.242-87.917a4.55 4.55 0 0 1 5.462 1.305 4.56 4.56 0 0 1 .061 5.621c-29.546 38.68-45.163 84.903-45.163 133.673 0 47.23 14.783 92.296 42.752 130.328 27.397 37.254 64.95 64.578 108.6 79.017a8.76 8.76 0 0 0 11.065-5.564c1.518-4.592-.973-9.547-5.564-11.065-83.343-27.567-139.338-105.013-139.338-192.715 0-44.895 14.374-87.442 41.567-123.042a22.048 22.048 0 0 0-.292-27.179 22.043 22.043 0 0 0-26.439-6.304c-44.699 20.442-82.6 53.032-109.603 94.242-27.727 42.313-42.382 91.528-42.382 142.323 0 143.376 116.646 260.021 260.021 260.021 50.792 0 100.007-14.655 142.324-42.382 41.209-27.003 73.8-64.903 94.245-109.603a22.053 22.053 0 0 0-6.306-26.442z"/><path d="M251.454 164.085c20.691 0 37.526 16.834 37.526 37.525a8.757 8.757 0 0 0 17.514 0c0-20.691 16.834-37.525 37.525-37.525a8.757 8.757 0 0 0 0-17.514c-20.691 0-37.525-16.835-37.525-37.526a8.757 8.757 0 0 0-17.514 0c0 20.691-16.835 37.526-37.526 37.526a8.757 8.757 0 0 0 0 17.514zm46.283-25.281a55.472 55.472 0 0 0 16.523 16.524 55.469 55.469 0 0 0-16.523 16.523 55.472 55.472 0 0 0-16.524-16.523 55.464 55.464 0 0 0 16.524-16.524zm77.667 137.892c15.022 0 27.244-12.221 27.244-27.242 0-15.022-12.222-27.244-27.244-27.244s-27.243 12.222-27.243 27.244c.002 15.021 12.222 27.242 27.243 27.242zm0-36.97c5.364 0 9.729 4.364 9.729 9.729 0 5.363-4.364 9.727-9.729 9.727s-9.728-4.363-9.728-9.727c.001-5.365 4.364-9.729 9.728-9.729zM40.451 436.768c-15.022 0-27.243 12.221-27.243 27.243 0 15.022 12.221 27.244 27.243 27.244 15.022 0 27.243-12.222 27.243-27.244s-12.221-27.243-27.243-27.243zm0 36.971c-5.364 0-9.728-4.364-9.728-9.729 0-5.365 4.364-9.727 9.728-9.727s9.728 4.363 9.728 9.728c0 5.364-4.363 9.728-9.728 9.728z"/><circle cx="297.736" cy="260.44" r="10.979"/><circle cx="10.979" cy="392.27" r="10.979"/><circle cx="368.144" cy="90.735" r="10.979"/></symbol><symbol viewBox="-72 195.9 451 451" id="appl-item14"><path d="M375 623.9L265.4 514.3c29.4-33.8 47.2-77.9 47.2-126.1 0-106.1-86.3-192.3-192.3-192.3C14.2 195.9-72 282.2-72 388.2s86.3 192.3 192.3 192.3c48.2 0 92.3-17.8 126.1-47.2L356 642.9c2.6 2.6 6.1 4 9.5 4s6.9-1.3 9.5-4c5.3-5.2 5.3-13.8 0-19zM-45 388.2c0-91.2 74.2-165.3 165.3-165.3 91.2 0 165.3 74.2 165.3 165.3s-74.1 165.4-165.3 165.4C29.2 553.6-45 479.4-45 388.2z"/><path d="M-39.6 389.3l4.5-9.7 6.4-13.1H-17v45.8h-12.7V393h-.2l-2.5 5.6-2.9 6.5H-44l-3.1-6.5-2.5-5.6h-.2v19.3h-12.6v-45.8H-51l6.4 13.2 4.7 9.6h.3zm76.2 23H19.5l23.6-66.4H32v9.4H16.1v-25.1h45.4v14.2l-24.9 67.9zm57.8 0H77.3l23.6-66.4H89.8v9.4H73.9v-25.1h45.4v14.2l-24.9 67.9zm57.8 0h-17.1l23.6-66.4h-11.1v9.4h-15.9v-25.1h45.4v14.2l-24.9 67.9zm80.8-23l4.5-9.7 6.4-13.1h11.7v45.8h-12.7V393h-.2l-2.5 5.6-2.9 6.5h-8.7l-3.1-6.5-2.5-5.6v19.3h-12.6v-45.8h11.4l6.4 13.2 4.7 9.6h.1zm53.3 0l4.5-9.7 6.4-13.1h11.7v45.8h-12.7V393h-.2l-2.5 5.6-2.9 6.5H282l-3.1-6.5-2.5-5.6h-.2v19.3h-12.6v-45.8H275l6.4 13.2 4.7 9.6h.2z"/></symbol><symbol viewBox="0 0 512 512" id="appl-item15"><path d="M498.322 173.278c6.66-10.754 11.638-22.872 11.638-35.079 0-28.401-23.105-51.506-51.506-51.506-3.298 0-6.522.324-9.651.92C400.102 31.879 330.126 0 256 0 187.62 0 123.333 26.628 74.98 74.98 26.628 123.333 0 187.62 0 256s26.628 132.667 74.98 181.02C123.333 485.372 187.62 512 256 512s132.667-26.628 181.02-74.98C485.372 388.667 512 324.38 512 256c0-28.341-4.61-56.155-13.678-82.722zm-39.868-66.186c17.153 0 31.108 13.955 31.108 31.108 0 17.779-18.793 39.425-31.116 51.127-12.325-11.678-31.099-33.284-31.099-51.127 0-17.154 13.954-31.108 31.107-31.108zm-29.512-11.068c-13.285 9.325-21.994 24.747-21.994 42.175 0 34.802 40.437 68.887 45.048 72.659a10.18 10.18 0 0 0 6.458 2.305c2.29 0 4.579-.768 6.458-2.305 1.873-1.532 9.652-8.063 18.234-17.61a234.986 234.986 0 0 1 8.21 52.042h-87.604c-1.493-62.836-16.094-121.674-41.511-166.672-11.065-19.591-23.684-35.674-37.412-47.968 39.538 12.059 75.495 34.438 104.113 65.374zM245.801 23.208v222.083H128.649c.781-31.526 5.005-61.901 12.351-89.753 11.893 23.506 34.296 42.372 37.657 45.121 1.879 1.537 4.168 2.305 6.458 2.305s4.579-.768 6.458-2.305c4.611-3.772 45.048-37.857 45.048-72.659 0-28.401-23.105-51.506-51.506-51.506a51.44 51.44 0 0 0-10.961 1.186c20.477-31.66 45.372-50.572 71.647-54.472zM154.008 128c0-17.153 13.955-31.108 31.108-31.108s31.108 13.955 31.108 31.108c0 17.779-18.793 39.425-31.116 51.127-12.325-11.679-31.1-33.285-31.1-51.127zm33.139-97.329c-13.719 12.292-26.329 28.368-37.388 47.948-25.417 44.998-40.018 103.835-41.511 166.672H20.652c4.554-101.272 73.337-186.097 166.495-214.62zM20.614 265.689h87.613c1.359 63.219 15.978 122.451 41.532 167.692 11.059 19.579 23.669 35.655 37.388 47.947C93.677 452.71 24.75 367.411 20.614 265.689zm225.187 223.104c-29.183-4.333-56.667-27.177-78.281-65.443-23.869-42.257-37.553-97.93-38.892-157.66H245.8v53.453c-23.782 4.547-41.817 25.491-41.817 50.579 0 30.478 31.015 60.408 41.817 69.906v49.165zm9.681-67.945c-12.325-11.678-31.099-33.284-31.099-51.127 0-17.153 13.955-31.108 31.108-31.108s31.108 13.955 31.108 31.108c-.001 17.779-18.794 39.425-31.117 51.127zm10.718 67.945v-50.07c11.604-10.379 40.797-39.429 40.797-69.001 0-24.728-17.52-45.435-40.797-50.379V23.208c29.183 4.333 56.667 27.177 78.281 65.443 23.734 42.017 37.4 97.296 38.871 156.64h-47.799c-5.633 0-10.199 4.566-10.199 10.199s4.566 10.198 10.199 10.198h47.819c-1.338 59.73-15.022 115.403-38.892 157.66-21.614 38.268-49.097 61.112-78.28 65.445zm58.653-7.464c13.719-12.292 26.329-28.368 37.388-47.948 25.554-45.241 40.174-104.472 41.532-167.692h87.613c-4.136 101.722-73.063 187.021-166.533 215.64z"/><path d="M298.837 245.291h-6.12c-5.633 0-10.199 4.566-10.199 10.199s4.566 10.199 10.199 10.199h6.12c5.633 0 10.199-4.566 10.199-10.199s-4.566-10.199-10.199-10.199zM458.454 125.45c-5.633 0-10.199 4.566-10.199 10.199v4.08c0 5.633 4.566 10.199 10.199 10.199s10.199-4.566 10.199-10.199v-4.08c0-5.633-4.566-10.199-10.199-10.199zm-273.338-10.199c-5.633 0-10.199 4.566-10.199 10.199v4.08c0 5.633 4.566 10.199 10.199 10.199s10.199-4.566 10.199-10.199v-4.08c0-5.633-4.566-10.199-10.199-10.199zm70.374 241.721c-5.633 0-10.199 4.566-10.199 10.199v4.08c0 5.633 4.566 10.199 10.199 10.199s10.199-4.566 10.199-10.199v-4.08c0-5.633-4.566-10.199-10.199-10.199z"/></symbol><symbol viewBox="0 0 512 512" id="appl-item2"><path d="M141.6 208c-51 0-92.4-41.5-92.4-92.4s41.5-92.4 92.4-92.4S234 64.7 234 115.6 192.6 208 141.6 208zm0-167.9c-41.6 0-75.4 33.8-75.4 75.4S100 191 141.6 191s75.4-33.8 75.4-75.4-33.8-75.5-75.4-75.5z"/><path d="M312.6 208c-51 0-92.4-41.5-92.4-92.4s41.5-92.4 92.4-92.4S405 64.7 405 115.6 363.6 208 312.6 208zm0-167.9c-41.6 0-75.4 33.8-75.4 75.4S271 191 312.6 191s75.4-33.8 75.4-75.4-33.8-75.5-75.4-75.5z"/><path d="M379.7 398.8H68.4c-4.7 0-8.5-3.8-8.5-8.5v-184c0-4.7 3.8-8.5 8.5-8.5h311.3c4.7 0 8.5 3.8 8.5 8.5v184c0 4.7-3.8 8.5-8.5 8.5zm-302.8-17h294.3v-167H76.9v167z"/><path d="M452.4 358.1c-.6 0-1.1-.1-1.7-.2L378 343.3l3.4-16.7 62.5 12.6v-86.1l-62.7 11.3-3-16.7 72.7-13.1c2.5-.4 5 .2 7 1.8 1.9 1.6 3 4 3 6.5v106.7c0 2.5-1.1 5-3.1 6.6-1.6 1.2-3.5 1.9-5.4 1.9zm-324 132c-2.2 0-4.5-.9-6.1-2.6-3.2-3.4-3.1-8.8.3-12l95.7-91.3c3.4-3.2 8.7-3.1 12 .2l88.6 91.3c3.3 3.4 3.2 8.8-.2 12-3.4 3.3-8.8 3.2-12-.2L224 402.2l-89.6 85.5c-1.8 1.6-3.9 2.4-6 2.4z"/></symbol><symbol viewBox="0 0 512 512" id="appl-item3"><path d="M101.869 299.627c-24.669 0-46.986 15.544-55.534 38.683-2.04 5.526.785 11.663 6.312 13.705 1.219.45 2.468.663 3.697.663 4.338 0 8.417-2.667 10.008-6.974 5.466-14.796 19.739-24.739 35.517-24.739 5.892 0 10.669-4.779 10.669-10.669 0-5.894-4.775-10.669-10.669-10.669zm154.132-49.201c-21.975 0-39.853 17.879-39.853 39.854 0 21.974 17.878 39.851 39.853 39.851s39.852-17.877 39.852-39.851c0-21.976-17.877-39.854-39.852-39.854zm0 58.367c-10.21 0-18.516-8.306-18.516-18.513 0-10.211 8.306-18.517 18.516-18.517 10.208 0 18.514 8.306 18.514 18.517.001 10.207-8.305 18.513-18.514 18.513z"/><path d="M504.024 319.313L460.383 174.05c-6.122-20.381-13.618-45.321-30.467-61.822l.002-.096c0-33.54-27.286-60.829-60.829-60.829s-60.829 27.288-60.829 60.829c0 7.477 1.404 14.91 4.08 21.869a999.293 999.293 0 0 0-7.095 7.606 1075.28 1075.28 0 0 1-5.706 6.132c-12.363-9.606-27.726-14.965-43.54-14.965-15.815 0-31.177 5.357-43.542 14.965a1335.512 1335.512 0 0 1-5.703-6.13c-2.326-2.512-4.69-5.063-7.097-7.61a61.05 61.05 0 0 0 4.08-21.867c0-33.54-27.286-60.829-60.829-60.829-33.541 0-60.829 27.288-60.829 60.829l.002.098c-16.847 16.499-24.344 41.439-30.467 61.82L7.981 319.307C2.842 331.465 0 344.82 0 358.827c0 56.171 45.698 101.869 101.869 101.869 54.338 0 98.871-42.76 101.722-96.397a96.998 96.998 0 0 0 52.41 15.384 96.986 96.986 0 0 0 52.408-15.384c2.853 53.637 47.386 96.397 101.722 96.397 56.171 0 101.869-45.698 101.869-101.869 0-14.005-2.842-27.358-7.976-39.514zM369.089 72.641c16.668 0 30.948 10.387 36.734 25.021-6.707-2.144-14.289-3.343-22.903-3.343-21.185 0-38.217 9.818-53.027 22.596a39.36 39.36 0 0 1-.296-4.784c.002-21.774 17.718-39.49 39.492-39.49zm-226.178 0c21.775 0 39.491 17.715 39.491 39.491 0 1.6-.102 3.198-.296 4.784-14.809-12.778-31.842-22.596-53.027-22.596-8.614 0-16.195 1.2-22.902 3.343 5.786-14.635 20.066-25.022 36.734-25.022zm-41.042 366.718c-44.406 0-80.532-36.125-80.532-80.532 0-44.404 36.125-80.527 80.532-80.527s80.532 36.123 80.532 80.527c.001 44.407-36.125 80.532-80.532 80.532zm154.133-81.013c-20.983 0-40.963-8.727-55.242-23.994-10.99-44.386-51.153-77.39-98.889-77.39-21.723 0-41.877 6.839-58.43 18.471l28.612-95.244c11.353-37.784 22.085-64.531 57.025-64.531 24.565 0 43.606 20.562 62.023 40.447 3.117 3.367 6.312 6.812 9.523 10.148l-6.782 44.782c-.881 5.824 3.126 11.263 8.952 12.146.542.081 1.08.121 1.611.121 5.186 0 9.735-3.788 10.535-9.073l7.053-46.58c9.152-8.633 21.371-13.538 34.009-13.538 12.636 0 24.855 4.905 34.007 13.538l3.265 21.558c.8 5.284 5.349 9.073 10.535 9.073.531 0 1.069-.039 1.611-.121 5.826-.883 9.833-6.322 8.952-12.148l-2.995-19.76c3.213-3.336 6.408-6.78 9.525-10.148 18.416-19.885 37.457-40.445 62.02-40.445 34.94 0 45.676 26.744 57.025 64.531l28.614 95.243c-16.554-11.631-36.707-18.471-58.43-18.471-47.734 0-87.898 33.005-98.889 77.388-14.278 15.269-34.257 23.997-55.24 23.997zm154.129 81.013c-44.406 0-80.532-36.125-80.532-80.532 0-44.404 36.125-80.527 80.532-80.527 44.406 0 80.532 36.123 80.532 80.527 0 44.407-36.126 80.532-80.532 80.532z"/><path d="M65.252 368.481c-1.55-5.684-7.42-9.033-13.098-7.485-5.63 1.534-8.972 7.302-7.531 12.934 1.19 4.862 5.547 8.133 10.354 8.133.809 0 1.631-.092 2.453-.286 5.734-1.351 9.291-7.093 7.941-12.827-.038-.16-.075-.315-.119-.469zm344.879-68.854c-24.669 0-46.986 15.544-55.534 38.683-2.04 5.526.785 11.663 6.312 13.705 1.219.45 2.468.663 3.697.663 4.338 0 8.417-2.667 10.008-6.974 5.466-14.796 19.739-24.739 35.517-24.739 5.892 0 10.669-4.779 10.669-10.669 0-5.894-4.777-10.669-10.669-10.669zm-36.617 68.854c-1.55-5.684-7.42-9.033-13.098-7.485-5.63 1.534-8.972 7.302-7.531 12.934 1.19 4.862 5.547 8.133 10.354 8.133.809 0 1.631-.092 2.453-.286 5.734-1.351 9.291-7.093 7.941-12.827-.038-.16-.076-.315-.119-.469z"/></symbol><symbol viewBox="0 0 512 512" id="appl-item4"><path d="M493.3 299.9c-4.3 0-9-.9-13.8-2.7l-.4-.1c-.6-.3-32.7-13.3-103.5-23-65.7-9-179-17-345.9-3.7h-.1c-14.2.9-24.7-6.1-28.1-18.8-4.6-17.2 4.8-42.5 18.4-49.3 1.5-.7 2.9-1.4 4.3-2.1 11.3-5.4 14.7-7.1 17.1-24.8 1.9-14.2 11.9-49.6 35.9-82.2 30.5-41.4 73.1-63.5 123.1-63.8 54.2-.3 110.1 8.5 157.3 25 46.7 16.2 79.9 38 93.5 61.2 14.6 24.9 22.2 54.7 28.4 78.7 4.1 15.8 8.3 32.2 12.3 36.2 12.8 12.8 21.3 43.6 19.9 56.1-.5 4.6-2.3 7.9-5.4 9.8-3.8 2.4-8.2 3.5-13 3.5zm-7.9-18.6c3.6 1.3 7 1.8 9.4 1.5-.3-8.5-6.6-31.7-15.2-40.2-7.3-7.3-11.3-22.7-16.7-44-5.9-22.9-13.2-51.5-26.6-74.3-22.1-37.8-120.8-77.8-233.1-77.8h-2.8c-45.1.3-82 19.4-109.5 56.9-22.8 31-31.4 64.2-32.8 74.4-3.4 25.5-12.4 31-26.6 37.8-1.3.6-2.6 1.3-4 2-5.4 2.7-12.4 19.4-9.6 29.7.9 3.5 2.9 6.7 10.5 6.2 169.1-13.5 284.1-5.3 350.7 4 70.6 9.7 103.2 22.6 106.3 23.8zM122.7 481c-18 0-34.1-2.8-42.9-7.6l-.2-.1c-1.9-1.1-46.8-27.8-49.8-67-1.6-21.2 9-41.3 31.7-59.9l.3-.2c9.1-6.9 27.7-12 49.7-13.7 22.9-1.8 45.1.4 60.8 6 29.5 10.6 111.2 11.7 159.3-8.6 24.4-10.3 52-11.4 77.7-3.1 23.8 7.7 42.4 22.6 49.9 39.9 17.4 40 12 75.6-14.2 95.2-15.3 11.4-75.9 25.5-114.5 5.2-56.1-29.5-85.8-41.8-147.8 0-16.6 11.2-41.2 13.5-54.4 14-1.9-.1-3.8-.1-5.6-.1zm-34.6-22.4c13.5 7.2 63.1 9.2 85-5.7 32.8-22.1 59.1-31.3 85.2-29.8s51.7 14 80 28.8c14 7.3 34 10 56.4 7.5 20.2-2.3 35.6-8 40.1-11.3 28.9-21.5 14-62.7 8.8-74.8-10.7-24.6-59.6-47.2-105.4-27.9-52.5 22.1-139 20.7-171.7 9-29.8-10.7-81.2-4.5-94.4 5.2-18 14.8-26.6 30-25.4 45.2 2.2 29.6 39.1 52.4 41.4 53.8z"/><path d="M143.9 451.9c-16.3 0-31.7-4.5-43.4-12.7-12.6-8.9-19.6-20.9-19.6-34s7-25.1 19.6-34c11.7-8.2 27.1-12.7 43.4-12.7s31.7 4.5 43.4 12.7c12.6 8.9 19.6 20.9 19.6 34s-7 25.1-19.6 34c-11.7 8.2-27.2 12.7-43.4 12.7zm0-76.5c-24.9 0-46 13.6-46 29.8s21.1 29.8 46 29.8 46-13.6 46-29.8-21.1-29.8-46-29.8zm213.3 68c-16.3 0-31.7-4.5-43.4-12.7-12.6-8.9-19.6-20.9-19.6-34s7-25.1 19.6-34c11.7-8.2 27.1-12.7 43.4-12.7s31.7 4.5 43.4 12.7c12.6 8.9 19.6 20.9 19.6 34s-7 25.1-19.6 34c-11.7 8.1-27.1 12.7-43.4 12.7zm0-76.5c-24.9 0-46 13.6-46 29.8s21.1 29.8 46 29.8 46-13.6 46-29.8-21-29.8-46-29.8z"/></symbol><symbol viewBox="0 0 512 512" id="appl-item5"><path d="M254.9 491.4c-63.3 0-122.8-24.7-167.6-69.4-44.8-44.8-69.4-104.3-69.4-167.6S42.6 131.6 87.3 86.8s104.3-69.4 167.6-69.4 122.8 24.7 167.6 69.4c44.8 44.8 69.4 104.3 69.4 167.6S467.2 377.2 422.5 422c-44.8 44.8-104.3 69.4-167.6 69.4zm0-457c-121.3 0-220 98.7-220 220s98.7 220 220 220 220-98.7 220-220-98.7-220-220-220z"/><path d="M282.6 327.4H226l-4.3-231h66.9l-6 231zm-39.9-17h23.4l5.1-197H239l3.7 197zm43.7 107h-61.5v-55.5h61.5v55.5zm-44.5-17h27.5v-21.5h-27.5v21.5z"/></symbol><symbol viewBox="0 0 512 512" id="appl-item6"><path d="M256.4 391.4c-34.4 0-68.7-7.1-101.9-21.2-26.4-11.2-52.1-26.8-76.5-46.3-41.4-33.2-64.3-66.1-65.3-67.5l-3.9-5.6 4.6-5c1.2-1.3 30.7-33 75.3-65.1 60.4-43.5 116.6-65.6 167.3-65.6 50.6 0 107 22.1 167.6 65.6 44.7 32.1 74.4 63.8 75.6 65.1l4.7 5-3.9 5.6c-1 1.4-23.8 34.2-65.3 67.5-24.4 19.6-50.1 35.1-76.5 46.3-33.1 14.1-67.4 21.2-101.8 21.2zM30.8 252.3C39 262.9 59.2 287.1 89 311c36.2 29 94.6 63.5 167.4 63.5 72.8 0 131.2-34.5 167.4-63.5 29.8-23.9 50-48 58.2-58.6-10.2-10.2-35.3-34.2-68.5-58-39.6-28.4-99-62.2-157.4-62.2-99.6-.1-202 96.7-225.3 120.1z"/><path d="M256 339.1c-47.1 0-85.5-38.4-85.5-85.5s38.4-85.5 85.5-85.5 85.5 38.4 85.5 85.5-38.3 85.5-85.5 85.5zm0-154c-37.8 0-68.5 30.7-68.5 68.5s30.7 68.5 68.5 68.5 68.5-30.7 68.5-68.5-30.7-68.5-68.5-68.5z"/></symbol><symbol viewBox="0 0 512 512" id="appl-item7"><path d="M295 459.4H178.4c-26.7 0-48.5-21.8-48.5-48.5V205.6c0-26.7 21.8-48.5 48.5-48.5H295c26.7 0 48.5 21.8 48.5 48.5v138.2h-17V205.6c0-17.4-14.1-31.5-31.5-31.5H178.4c-17.4 0-31.5 14.1-31.5 31.5v205.3c0 17.4 14.1 31.5 31.5 31.5H295c4.6 0 9-1 13.2-2.9l7.2 15.4c-6.4 3-13.3 4.5-20.4 4.5z"/><path d="M338 492.1c-2.3 0-4.7-1-6.4-2.9-31.1-35.1-27.4-69.7-24.3-83.2-10.9-10.2-40-39.9-49.3-76-3.9-15.4-2.1-26.3 5.5-32.4 12.4-10.1 32.8-.9 36.8 1 .8.4 1.6.9 2.2 1.6l62.3 61c3.4 3.3 3.4 8.7.1 12-3.3 3.4-8.7 3.4-12 .1l-61.3-60c-6.4-2.8-15.1-4.5-17.5-2.6-1 .8-2.3 5.1.3 15 9.9 38.6 47.5 70.6 47.9 70.9 2.8 2.3 3.8 6.1 2.5 9.5-.5 1.4-12.5 35.6 19.4 71.7 3.1 3.5 2.8 8.9-.7 12-1.5 1.6-3.5 2.3-5.5 2.3zm115.9 2c-2.6 0-5.1-1.2-6.8-3.4l-59-77.7c-1.2-1.6-1.8-3.5-1.7-5.4 0-.8 2.5-79.1.1-98.4-1.3-10.2-30.3-37-56.4-56-3.8-2.8-4.6-8.1-1.9-11.9 2.8-3.8 8.1-4.6 11.9-1.9.6.4 14.8 10.8 29.6 23.9 28.4 25.1 32.8 37 33.7 43.8 2.3 18.5.6 83 .2 98l57.2 75.3c2.8 3.7 2.1 9.1-1.6 11.9-1.7 1.2-3.5 1.8-5.3 1.8z"/><path d="M242.9 405.9c-7.2 0-13-5.8-13-13s5.8-13 13-13 13 5.8 13 13-5.9 13-13 13zm0-17c-2.2 0-4 1.8-4 4s1.8 4 4 4 4-1.8 4-4-1.8-4-4-4zm-41 17c-7.2 0-13-5.8-13-13s5.8-13 13-13 13 5.8 13 13-5.9 13-13 13zm0-17c-2.2 0-4 1.8-4 4s1.8 4 4 4 4-1.8 4-4-1.8-4-4-4zm41-24c-7.2 0-13-5.8-13-13s5.8-13 13-13 13 5.8 13 13-5.9 13-13 13zm0-17c-2.2 0-4 1.8-4 4s1.8 4 4 4 4-1.8 4-4-1.8-4-4-4zm-41 17c-7.2 0-13-5.8-13-13s5.8-13 13-13 13 5.8 13 13-5.9 13-13 13zm0-17c-2.2 0-4 1.8-4 4s1.8 4 4 4 4-1.8 4-4-1.8-4-4-4zm41-24c-7.2 0-13-5.8-13-13s5.8-13 13-13 13 5.8 13 13-5.9 13-13 13zm0-17c-2.2 0-4 1.8-4 4s1.8 4 4 4 4-1.8 4-4-1.8-4-4-4zm-41 17c-7.2 0-13-5.8-13-13s5.8-13 13-13 13 5.8 13 13-5.9 13-13 13zm0-17c-2.2 0-4 1.8-4 4s1.8 4 4 4 4-1.8 4-4-1.8-4-4-4zm82-24c-7.2 0-13-5.8-13-13s5.8-13 13-13 13 5.8 13 13-5.9 13-13 13zm0-17c-2.2 0-4 1.8-4 4s1.8 4 4 4 4-1.8 4-4-1.8-4-4-4zm-41 17c-7.2 0-13-5.8-13-13s5.8-13 13-13 13 5.8 13 13-5.9 13-13 13zm0-17c-2.2 0-4 1.8-4 4s1.8 4 4 4 4-1.8 4-4-1.8-4-4-4zm-41 17c-7.2 0-13-5.8-13-13s5.8-13 13-13 13 5.8 13 13-5.9 13-13 13zm0-17c-2.2 0-4 1.8-4 4s1.8 4 4 4 4-1.8 4-4-1.8-4-4-4zm82-24c-7.2 0-13-5.8-13-13s5.8-13 13-13 13 5.8 13 13-5.9 13-13 13zm0-17c-2.2 0-4 1.8-4 4s1.8 4 4 4 4-1.8 4-4-1.8-4-4-4zm-41 17c-7.2 0-13-5.8-13-13s5.8-13 13-13 13 5.8 13 13-5.9 13-13 13zm0-17c-2.2 0-4 1.8-4 4s1.8 4 4 4 4-1.8 4-4-1.8-4-4-4zm-41 17c-7.2 0-13-5.8-13-13s5.8-13 13-13 13 5.8 13 13-5.9 13-13 13zm0-17c-2.2 0-4 1.8-4 4s1.8 4 4 4 4-1.8 4-4-1.8-4-4-4zM122 90.6c-2.1 0-4.2-.8-5.8-2.3-3.4-3.2-3.6-8.6-.3-12 32.2-34.1 75.7-52.8 122.5-52.8 46.1 0 89.2 18.3 121.2 51.5 3.3 3.4 3.2 8.8-.2 12-3.4 3.3-8.8 3.2-12-.2-28.8-29.9-67.5-46.3-109-46.3-42.1 0-81.2 16.9-110.2 47.5-1.7 1.7-3.9 2.6-6.2 2.6z"/><path d="M150.4 117c-2.3 0-4.5-.9-6.2-2.7-3.2-3.4-3.1-8.8.4-12 25.9-24.4 59.8-37.9 95.5-37.9 33.6 0 66 12.1 91.3 34.1 3.5 3.1 3.9 8.4.8 12-3.1 3.5-8.4 3.9-12 .8-22.2-19.3-50.7-30-80.2-30-31.3 0-61.1 11.8-83.8 33.3-1.7 1.6-3.8 2.4-5.8 2.4z"/><path d="M179.8 144c-2.3 0-4.6-.9-6.3-2.8-3.1-3.5-2.9-8.9.6-12 17.9-16.1 41.1-25 65.2-25 23.7 0 46.5 8.6 64.3 24.2 3.5 3.1 3.9 8.5.8 12-3.1 3.5-8.5 3.9-12 .8a80.36 80.36 0 0 0-53.1-20c-19.9 0-39 7.3-53.8 20.6-1.6 1.5-3.6 2.2-5.7 2.2z"/></symbol><symbol viewBox="0 0 512 512" id="appl-item8"><circle cx="282.7" cy="229.3" r="15.3"/><circle cx="159.4" cy="294.6" r="15.3"/><circle cx="110" cy="344.6" r="15.3"/><circle cx="167.4" cy="401.6" r="15.3"/><circle cx="217" cy="355.3" r="15.3"/><path d="M281.7 303.1c-40.3 0-73.2-32.8-73.2-73.2 0-40.3 32.8-73.2 73.2-73.2 40.3 0 73.2 32.8 73.2 73.2 0 40.4-32.9 73.2-73.2 73.2zm0-129.3c-31 0-56.2 25.2-56.2 56.2 0 31 25.2 56.2 56.2 56.2 31 0 56.2-25.2 56.2-56.2 0-31-25.2-56.2-56.2-56.2z"/><path d="M165.9 492.3c-10.3 0-19.9-4-27.1-11.2L31.5 373.8c-15-15-15-39.3 0-54.2L263.4 87.7c15-15 39.3-15 54.2 0L424.9 195c15 15 15 39.3 0 54.2L193 481.1c-7.2 7.3-16.8 11.2-27.1 11.2zm124.6-400c-5.8 0-11.5 2.2-15.9 6.6L42.7 330.8c-8.8 8.8-8.8 23 0 31.8L150 469.9c4.2 4.2 9.9 6.6 15.9 6.6s11.7-2.3 15.9-6.6L413.7 238c8.8-8.8 8.8-23 0-31.8L306.4 98.9c-4.3-4.4-10.1-6.6-15.9-6.6zm137.7 63.9c-4.1 0-7.6-3.2-7.9-7.3 0-.2-2.1-23.7-14.7-38.9-12.9-15.5-43.5-17.7-43.8-17.7-4.4-.3-7.7-4.1-7.4-8.4.3-4.4 4.1-7.7 8.4-7.4 1.5.1 37.6 2.6 54.9 23.4 15.9 19.1 18.3 46.6 18.3 47.8.3 4.4-2.9 8.2-7.3 8.5h-.5zm55.7-2.8h-.1c-4.4-.1-7.9-3.7-7.8-8 0-.4 0-39.5-30.9-73.6C413.5 37 363 36.4 362.5 36.4c-4.4 0-7.9-3.6-7.9-7.9s3.5-7.9 7.9-7.9c2.3 0 57.9.5 94.4 40.6 35.3 38.9 35.1 82.6 35.1 84.4-.3 4.3-3.8 7.8-8.1 7.8z"/></symbol><symbol viewBox="0 0 512 512" id="appl-item9"><path d="M256 469.4c-1.7 0-3.3-.5-4.8-1.5-41.5-28.4-77.4-64.3-106.6-106.6-23.3-33.8-42.4-71.8-56.8-112.8-24.5-69.9-26.8-124-26.9-126.2-.1-2.5.9-4.9 2.7-6.6 1.8-1.7 4.3-2.5 6.8-2.2 31.9 4 73.6-5.3 114.5-25.4 16.4-8.1 31.7-17.5 43.1-26.5 12.3-9.7 15.9-15.6 16.3-17.3V44c0-4.6 3.6-8.3 8.2-8.5 4.6-.2 8.5 3.3 8.8 7.9v.5c1 4.7 17.4 22.8 53.2 40.8 22.6 11.5 68.6 30.4 121.6 28.8 2.6-.1 5 1 6.7 2.9 1.7 1.9 2.4 4.5 1.9 7-.8 4.7-1.7 9.5-2.5 14.4-7.7 44.3-17.2 99.4-42.6 156.6-29.7 67-75 123.7-138.4 173.2-1.5 1.2-3.3 1.8-5.2 1.8zM78.6 131.3c1.8 18.4 7.5 61.4 25.4 112.2 21.4 60.8 65 145.6 151.7 206.9 133.6-107 154.5-227.3 169.8-315.4.3-1.5.5-3 .8-4.4-75.6-1.1-142.8-39-168.4-63.8-1.8-1.8-3.4-3.5-4.9-5.1-1.5 1.7-3.2 3.4-5.1 5.3-16.6 15.8-45.6 33.3-75.7 45.6-24.1 9.7-59 20.4-93.6 18.7z"/><path d="M243.4 313.4c-2.2 0-4.4-.8-6-2.5l-58-58c-3.3-3.3-3.3-8.7 0-12 3.3-3.3 8.7-3.3 12 0l52 52 100-100c3.3-3.3 8.7-3.3 12 0 3.3 3.3 3.3 8.7 0 12l-106 106c-1.7 1.7-3.9 2.5-6 2.5z"/></symbol><symbol viewBox="0 0 139.4 44.7" id="dorohovdesign"><path d="M52.2 19.5V8.1H57c3.6 0 6.1 2.1 6.1 5.7 0 3.5-2.6 5.7-6.1 5.7h-4.8zm7.9-5.7c0-1.8-1.1-3.1-3.1-3.1h-1.9v6.2H57c2 0 3.1-1.4 3.1-3.1m4.1 0c0-3.4 2.6-5.9 6.1-5.9 3.5 0 6.1 2.4 6.1 5.9 0 3.5-2.6 5.9-6.1 5.9-3.5 0-6.1-2.4-6.1-5.9m9.2 0c0-1.9-1.2-3.3-3.1-3.3-1.9 0-3.1 1.4-3.1 3.3 0 1.8 1.2 3.3 3.1 3.3 1.9 0 3.1-1.4 3.1-3.3m11 5.7l-1.9-3.8H81v3.8h-2.9V8.1h5.7c2.5 0 3.9 1.7 3.9 3.8 0 2-1.2 3-2.3 3.4l2.3 4.2h-3.3zm.3-7.6c0-.8-.6-1.2-1.4-1.2H81v2.4h2.3c.8 0 1.4-.4 1.4-1.2m4.2 1.9c0-3.4 2.6-5.9 6.1-5.9 3.5 0 6.1 2.4 6.1 5.9 0 3.5-2.6 5.9-6.1 5.9-3.5 0-6.1-2.4-6.1-5.9m9.1 0c0-1.9-1.2-3.3-3.1-3.3-1.9 0-3.1 1.4-3.1 3.3 0 1.8 1.2 3.3 3.1 3.3 1.9 0 3.1-1.4 3.1-3.3m12.4 5.7v-4.6h-4.7v4.6h-3V8.1h3v4.3h4.7V8.1h2.9v11.4zm4.6-5.7c0-3.4 2.6-5.9 6.1-5.9 3.5 0 6.1 2.4 6.1 5.9 0 3.5-2.6 5.9-6.1 5.9-3.5 0-6.1-2.4-6.1-5.9m9.2 0c0-1.9-1.2-3.3-3.1-3.3-1.9 0-3.1 1.4-3.1 3.3 0 1.8 1.2 3.3 3.1 3.3 1.9 0 3.1-1.4 3.1-3.3m7.3 5.7l-4.3-11.4h3.3l2.8 8.2 2.8-8.2h3.3l-4.2 11.4zm-79.3 17V25.1H57c3.6 0 6.1 2.1 6.1 5.7 0 3.5-2.6 5.7-6.1 5.7h-4.8zm7.9-5.7c0-1.8-1.1-3.1-3.1-3.1h-1.9v6.2H57c2 0 3.1-1.4 3.1-3.1m4.7 5.7V25.1h8.3v2.6h-5.3v1.8H73V32h-5.2v1.9h5.3v2.6zm9.6-1.6l1.5-2.2c.8.8 2.1 1.5 3.6 1.5 1 0 1.6-.4 1.6-.9 0-1.5-6.4-.3-6.4-4.7 0-1.9 1.6-3.6 4.5-3.6 1.8 0 3.4.5 4.6 1.6l-1.6 2.1c-1-.8-2.2-1.2-3.3-1.2-.8 0-1.2.3-1.2.8 0 1.4 6.4.4 6.4 4.6 0 2.3-1.7 3.8-4.7 3.8-2.2 0-3.8-.7-5-1.8m11.5-9.8h2.9v11.3h-2.9zm4.7 5.7c0-3.6 2.8-5.9 6.1-5.9 2.5 0 4.1 1.3 4.8 2.8L99.1 29c-.4-.7-1.3-1.4-2.4-1.4-1.9 0-3.2 1.4-3.2 3.3s1.3 3.3 3.2 3.3c.8 0 1.7-.3 2.1-.7v-.9h-2.6V30h5.5v4.5c-1.2 1.3-2.9 2.2-5 2.2-3.4 0-6.1-2.3-6.1-5.9m20.9 5.7l-4.8-6.6v6.6h-2.9V25.1h3l4.6 6.3v-6.3h2.9v11.4zM17.7 0H0v44.7h17.8c15 0 24.6-8.8 24.6-22.4C42.4 8.7 32.7 0 17.7 0m-.4 35.7h-8V9.5h8c9.3 0 15.7 3.7 15.7 12.7.1 7.5-5.8 13.5-15.7 13.5"/><path d="M19.1 17H17v10.6h2c4 0 6.4-2.4 6.4-5.4 0-3.7-2.6-5.2-6.3-5.2"/></symbol><symbol viewBox="0 0 490 490" id="download"><path d="M364.1 251.3c-7-7-18.4-7-25.5 0L263 327.1V130.9c0-9.9-8.1-18-18-18s-18 8.1-18 18v196.2l-75.8-75.8c-7-7-18.4-7-25.5 0-7 7-7 18.4 0 25.5l106.5 106.5c3.5 3.5 8.1 5.3 12.7 5.3s9.2-1.8 12.7-5.3l106.5-106.5c7-7 7-18.4 0-25.5zM245 0c-9.9 0-18 8.1-18 18v41.2c0 9.9 8.1 18 18 18s18-8.1 18-18V18c0-9.9-8.1-18-18-18z"/><path d="M438.2 334.9c-9.9 0-18 8.1-18 18V454H69.8V352.9c0-9.9-8.1-18-18-18s-18 8.1-18 18V472c0 9.9 8.1 18 18 18h386.3c10 0 18.1-8.1 18.1-18V352.9c0-9.9-8.1-18-18-18z"/></symbol><symbol viewBox="0 0 488 488" id="email"><path d="M416.5 71.5C370.4 25.4 309.2 0 244 0S117.6 25.4 71.5 71.5C25.4 117.6 0 178.8 0 244s25.4 126.4 71.5 172.5C117.6 462.6 178.8 488 244 488c39.7 0 79-9.7 113.9-28.2 8.8-4.6 12.1-15.5 7.5-24.3s-15.5-12.1-24.3-7.5c-29.7 15.7-63.2 24-97.1 24-114.7 0-208-93.3-208-208S129.3 36 244 36s208 93.3 208 208c0 38.6-10.8 60.6-19.9 72.2-9.7 12.5-22.7 19.6-35.7 19.6-18.1 0-36.4-14.4-36.4-46.6V149.1c0-9.9-8.1-18-18-18s-18 8.1-18 18v7.9c-22.4-22.5-53.3-36.4-87.5-36.4C168.4 120.5 113 175.9 113 244s55.4 123.5 123.5 123.5c12.1 0 24-1.7 35.4-5.2 9.5-2.8 14.9-12.9 12.1-22.4s-12.9-14.9-22.4-12.1c-8.1 2.4-16.6 3.7-25.1 3.7-48.2 0-87.5-39.2-87.5-87.5 0-48.2 39.2-87.5 87.5-87.5S324 195.7 324 244v45.2c0 54.2 36.4 82.6 72.4 82.6 24.1 0 47.5-12.2 64.1-33.5 18-23.1 27.5-55.7 27.5-94.3 0-65.2-25.4-126.4-71.5-172.5z"/></symbol><symbol viewBox="0 0 511.999 511.999" id="instr-item1"><path d="M476.974 497.705l-148.057-337.71h8.54c5.633 0 10.199-4.567 10.199-10.199s-4.566-10.199-10.199-10.199h-17.482L300.33 94.788l35.289-80.493A10.2 10.2 0 0 0 326.278 0h-37.973a10.201 10.201 0 0 0-9.341 6.103l-58.525 133.493h-41.443c-5.633 0-10.199 4.567-10.199 10.199s4.566 10.199 10.199 10.199h32.501l-17.439 39.777h-41.58c-5.633 0-10.199 4.567-10.199 10.199s4.566 10.199 10.199 10.199h32.636l-17.439 39.777H124.94c-5.633 0-10.199 4.567-10.199 10.199s4.566 10.199 10.199 10.199h33.793l-17.439 39.777H98.422c-5.633 0-10.199 4.567-10.199 10.199s4.566 10.199 10.199 10.199h33.929l-17.439 39.777H70.884c-5.633 0-10.199 4.567-10.199 10.199s4.566 10.199 10.199 10.199h35.085L88.53 440.471H44.366c-5.633 0-10.199 4.567-10.199 10.199s4.566 10.199 10.199 10.199h35.222L63.44 497.702a10.2 10.2 0 0 0 9.342 14.294h37.974c4.049 0 7.715-2.396 9.341-6.103l150.112-342.397 150.111 342.4a10.199 10.199 0 0 0 9.341 6.103h37.972a10.2 10.2 0 0 0 9.341-14.294zm-372.885-6.103h-15.7L294.97 20.398h15.701L104.089 491.602zm332.235 0L281.343 138.096l7.85-17.906 162.831 371.411h-15.7z"/><path d="M366.661 139.596h-1.666c-5.633 0-10.199 4.567-10.199 10.199s4.566 10.199 10.199 10.199h1.666c5.633 0 10.199-4.567 10.199-10.199 0-5.631-4.566-10.199-10.199-10.199z"/></symbol><symbol viewBox="0 0 495 495" id="instr-item2"><path d="M487.5 144H375v-8.5a7.5 7.5 0 0 0-5.128-7.115l-24-8A7.497 7.497 0 0 0 343.5 120H327v-.5a7.5 7.5 0 0 0-7.5-7.5H295v-.5a7.5 7.5 0 0 0-7.5-7.5H36.591C16.415 104 0 120.415 0 140.591v53.818c0 17.146 11.854 31.576 27.798 35.523L1.836 372.728a15.455 15.455 0 0 0 3.35 12.704 15.46 15.46 0 0 0 11.9 5.568H83.5c10.752 0 19.5-8.748 19.5-19.5 0-10.302-8.029-18.763-18.158-19.454L98.123 279H127.5a7.505 7.505 0 0 0 6.25-3.382 7.531 7.531 0 0 0 .636-7.092c-.075-.175-6.857-16.542-1.336-37.526h54.422c14.249 0 28.181-2.683 41.41-7.975L280 202.578V216h-8.5a7.5 7.5 0 0 0 0 15h8.5v121h-.5a7.5 7.5 0 0 0 0 15h48a7.5 7.5 0 0 0 0-15h-.5V231h8.5a7.5 7.5 0 0 0 0-15H327v-33h16.5c.806 0 1.607-.13 2.372-.385l24-8A7.5 7.5 0 0 0 375 167.5V159h112.5a7.5 7.5 0 0 0 0-15zM70.105 364.306A7.5 7.5 0 0 0 75.863 367H83.5c2.481 0 4.5 2.019 4.5 4.5s-2.019 4.5-4.5 4.5H17.086c-.07 0-.234 0-.384-.18s-.121-.341-.108-.41l1.529-8.41H47.5a7.5 7.5 0 0 0 0-15H20.85l23.12-127.158a7.499 7.499 0 0 0-7.379-8.841C24.686 216 15 206.314 15 194.409v-53.818C15 128.686 24.686 119 36.591 119H176v97h-75.409a7.5 7.5 0 0 0-7.379 6.158l-24.727 136a7.504 7.504 0 0 0 1.62 6.148zM117.51 264h-16.66l6-33h10.775c-2.877 13.5-1.754 25.156-.115 33zm105.801-54.902A96.001 96.001 0 0 1 191 215.917V119h89v67.422l-56.689 22.676zM312 352h-17V231h17v121zm-17-136v-89h17v89h-17zm65-53.906L342.283 168H327v-33h15.283L360 140.906v21.188z"/><path d="M159.5 191a7.5 7.5 0 0 0 7.5-7.5v-32a7.5 7.5 0 0 0-15 0v32a7.5 7.5 0 0 0 7.5 7.5zm-24 0a7.5 7.5 0 0 0 7.5-7.5v-32a7.5 7.5 0 0 0-15 0v32a7.5 7.5 0 0 0 7.5 7.5zm-24 0a7.5 7.5 0 0 0 7.5-7.5v-32a7.5 7.5 0 0 0-15 0v32a7.5 7.5 0 0 0 7.5 7.5z"/></symbol><symbol viewBox="0 0 512 512" id="instr-item3"><path d="M404.546 138.492a7.61 7.61 0 0 0-4.312-3.917l-74.4-26.715a7.61 7.61 0 0 0-9.734 4.59l-17.987 50.071a7.61 7.61 0 0 0 4.591 9.735l74.408 26.722a7.616 7.616 0 0 0 5.818-.278 7.608 7.608 0 0 0 3.917-4.313l17.979-50.079a7.601 7.601 0 0 0-.28-5.816zm-78.802 25.867l-10.733-3.854 12.842-35.748 10.726 3.852-12.835 35.75zm24.292 8.723l-9.969-3.58 12.837-35.749 9.973 3.581-12.841 35.748zm25.058 9l-10.733-3.855 12.841-35.748 10.727 3.851-12.835 35.752zM73.499 429.606c-8.547-8.547-22.455-8.547-31.004 0-8.543 8.543-8.541 22.449.007 30.996 4.272 4.271 9.883 6.407 15.495 6.407 5.611 0 11.223-2.136 15.495-6.407 8.548-8.547 8.551-22.452.007-30.996zm-10.771 20.233a6.7 6.7 0 0 1-9.463 0c-2.613-2.613-2.616-6.862-.007-9.47 1.307-1.307 3.023-1.96 4.739-1.96s3.433.654 4.739 1.959c2.608 2.609 2.605 6.858-.008 9.471z"/><path d="M485.585 33.956a7.608 7.608 0 0 0-12.836 2.393l-31.228 84.138-109.842-40.66c7.689-29.785 30.392-53.133 59.545-61.847L368.72 79.225a7.61 7.61 0 0 0 4.519 9.768 7.606 7.606 0 0 0 9.768-4.519l27.28-74.239a7.607 7.607 0 0 0-1.221-7.404 7.613 7.613 0 0 0-6.98-2.757c-40.899 5.74-73.97 35.183-84.734 74.446l-23.582-8.73a7.611 7.611 0 0 0-10.125 5.756l-11.211 60.677c-2.131 11.529-7.636 22.003-15.921 30.288l-17.102 17.102a7.61 7.61 0 0 0 0 10.762 7.61 7.61 0 0 0 10.763.001l17.102-17.102c10.473-10.474 17.433-23.713 20.125-38.286l9.568-51.784 146.4 54.194a7.611 7.611 0 0 0 9.777-4.488l29.057-78.286c21.907 34.033 17.695 79.77-11.764 109.228-5.554 5.554-10.691 9.638-15.693 12.477-3.015 1.703-36.881 16.317-36.881 16.317l-72.626 30.549a67.45 67.45 0 0 0-21.707 14.586l-15.751 15.751a7.61 7.61 0 0 0 5.381 12.991 7.585 7.585 0 0 0 5.381-2.229l15.751-15.751a52.308 52.308 0 0 1 16.837-11.315l89.579-37.68c.074-.029.148-.06.221-.091 1.673-.725 16.484-7.155 21.313-9.882 6.221-3.532 12.421-8.425 18.955-14.959 38.318-38.317 40.244-100.101 4.386-140.66zM267.958 325.728l-92.062-92.063a7.609 7.609 0 0 0-10.762 0 7.61 7.61 0 0 0 0 10.762l4.732 4.732L17.703 401.322C6.764 412.26.741 426.803.741 442.272c0 15.469 6.024 30.011 16.962 40.949 10.947 10.947 25.492 16.975 40.957 16.975s30.008-6.025 40.949-16.967l152.163-152.163 5.424 5.424a7.587 7.587 0 0 0 5.381 2.229 7.61 7.61 0 0 0 5.381-12.991zM88.846 472.466c-8.067 8.067-18.788 12.51-30.187 12.51s-22.123-4.445-30.194-12.517c-16.645-16.646-16.645-43.728 0-60.374l152.163-152.163 60.381 60.381L88.846 472.466z"/><path d="M492.422 429.646l-12.844-12.843a7.61 7.61 0 1 0-10.762 10.762l12.845 12.845c6.233 6.232 9.665 14.525 9.665 23.349s-3.433 17.116-9.665 23.35c-6.236 6.237-14.529 9.671-23.35 9.671-8.82 0-17.112-3.435-23.35-9.671l-75.74-75.739c5.485-10.13 3.951-23.083-4.601-31.635-8.552-8.552-21.505-10.086-31.635-4.601l-6.225-6.225 46.699-46.699 6.217 6.217a26.58 26.58 0 0 0-3.221 12.744c0 7.139 2.78 13.85 7.829 18.899 8.552 8.552 21.505 10.086 31.635 4.601l42.615 42.615a7.61 7.61 0 1 0 10.762-10.762l-47.216-47.216a7.61 7.61 0 0 0-10.762 0c-4.486 4.486-11.785 4.486-16.271 0s-4.486-11.786 0-16.272a7.607 7.607 0 0 0 0-10.762l-16.207-16.207a7.61 7.61 0 0 0-10.762 0l-1.216 1.216-16.728-16.728a7.607 7.607 0 0 0-10.762 0l-3.931 3.931L125.364 94.407l-4.42-31.344a7.612 7.612 0 0 0-4.14-5.748L62.223 30.1a7.611 7.611 0 0 0-8.777 1.43L26.081 58.894a7.61 7.61 0 0 0-1.43 8.777l27.216 54.581a7.61 7.61 0 0 0 5.748 4.14l31.343 4.421 22.743 22.743a7.61 7.61 0 1 0 10.762-10.762l-24.542-24.542a7.607 7.607 0 0 0-4.319-2.154l-29.9-4.217-22.985-46.099 19.617-19.618 46.097 22.986 4.217 29.901a7.607 7.607 0 0 0 2.154 4.319l201.876 201.876-14.881 14.881-161.331-161.332a7.61 7.61 0 1 0-10.762 10.762l161.332 161.332-3.931 3.931a7.61 7.61 0 0 0 0 10.762l16.728 16.728-1.216 1.216a7.61 7.61 0 0 0 0 10.762l16.207 16.207a7.61 7.61 0 0 0 10.762 0c4.486-4.486 11.785-4.486 16.271 0a11.43 11.43 0 0 1 3.371 8.136 11.43 11.43 0 0 1-3.371 8.136 7.607 7.607 0 0 0 0 10.762l80.341 80.341c9.111 9.112 21.226 14.13 34.112 14.13s25.001-5.018 34.112-14.13c9.108-9.107 14.124-21.222 14.124-34.112s-5.016-25.005-14.124-34.112zm-191.173-89.444l33.505-33.505 11.347 11.346-33.505 33.505-11.347-11.346z"/></symbol><symbol viewBox="0 0 512.002 512.002" id="instr-item4"><path d="M181.335 164.453c-52.935 0-96.001 43.066-96.001 96.001s43.066 96.001 96.001 96.001 96.001-43.066 96.001-96.001-43.066-96.001-96.001-96.001zm0 170.667c-41.17 0-74.666-33.496-74.666-74.666 0-41.172 33.496-74.666 74.666-74.666 41.172 0 74.666 33.494 74.666 74.666-.001 41.169-33.494 74.666-74.666 74.666z"/><path d="M204.483 282.557c-6.092 6.379-14.314 9.894-23.15 9.894-5.89 0-10.667 4.776-10.667 10.667 0 5.89 4.778 10.667 10.667 10.667 14.722 0 28.421-5.859 38.58-16.495 4.069-4.261 3.913-11.013-.348-15.083-4.263-4.066-11.013-3.913-15.082.35zM224 249.786c-5.892 0-10.667 4.776-10.667 10.667 0 .25-.006.5-.011.744-.133 5.89 4.534 10.774 10.423 10.905.081.002.162.004.244.004 5.78 0 10.53-4.619 10.661-10.427.008-.402.017-.815.017-1.226.001-5.892-4.776-10.667-10.667-10.667zm64.001 85.332c-17.647 0-32.002 14.355-32.002 32.003 0 17.645 14.355 32.002 32.002 32.002 17.645 0 32.003-14.357 32.003-32.002-.001-17.648-14.358-32.003-32.003-32.003zm0 42.67c-5.882 0-10.667-4.785-10.667-10.667s4.785-10.667 10.667-10.667 10.667 4.785 10.667 10.667-4.785 10.667-10.667 10.667z"/><path d="M501.333 324.452c-5.892 0-10.667 4.776-10.667 10.667H362.668V233.506c0-3.492-.127-7.001-.367-10.499l12.028-3.223a10.672 10.672 0 0 0 7.795-11.859c-5.517-37.453-22.71-71.529-49.722-98.539-27.01-27.01-61.084-44.205-98.539-49.722-5.355-.783-10.457 2.562-11.859 7.795l-3.223 12.028c-3.5-.24-7.009-.367-10.497-.367H46.598C20.904 79.118 0 100.022 0 125.716v269.475c0 25.692 20.904 46.596 46.598 46.596h305.344l.061.002.063-.002h49.654l.061.002.063-.002h49.654l.063.002.061-.002h39.046c0 5.89 4.776 10.665 10.667 10.665s10.667-4.776 10.667-10.668V335.12c-.002-5.893-4.78-10.668-10.669-10.668zm-159.999 70.739c0 13.929-11.332 25.261-25.263 25.261H46.598c-13.931 0-25.263-11.332-25.263-25.261V125.716c0-13.931 11.332-25.263 25.263-25.263h161.685c1.615 0 3.233.029 4.855.09l-2.278 8.501a10.666 10.666 0 0 0 9.177 13.368c52.039 5.517 93.817 47.295 99.337 99.337.33 3.1 1.998 5.902 4.569 7.669.402.275.825.511 1.255.728.118.061.24.114.363.169.346.158.7.298 1.06.419.104.033.204.073.308.105.452.135.911.242 1.375.315.104.017.21.022.317.037.375.048.75.077 1.13.083.077.002.155.019.232.019.069 0 .138-.013.206-.015.289-.004.577-.027.867-.057.14-.015.279-.021.421-.042.425-.061.848-.14 1.267-.252l8.501-2.278c.061 1.621.09 3.24.09 4.857v161.685zm-2.632-187.948a131.894 131.894 0 0 0-5.373-19.018c-15.728-43.016-53.15-75.891-98.786-85.142l5.532-20.639c59.384 12.58 106.687 59.883 119.267 119.267l-20.64 5.532zm151.963 213.208h-28.44V402.95c0-5.89-4.778-10.668-10.667-10.668-5.892 0-10.667 4.778-10.667 10.668v17.501h-28.444V402.95c0-5.89-4.776-10.668-10.667-10.668s-10.667 4.778-10.667 10.668v17.501H362.67v-31.996l-.002-.042v-31.959h127.997v63.997z"/><path d="M53.34 249.105c-5.892 0-10.668 4.776-10.668 10.667l-.002.682c0 5.89 4.776 10.667 10.667 10.667 5.89 0 10.667-4.778 10.667-10.667l.002-.682c.001-5.892-4.777-10.667-10.666-10.667zm127.992-105.98c5.892 0 10.668-4.778 10.668-10.667 0-5.892-4.776-10.667-10.668-10.667-63.273 0-118.49 42.736-134.275 103.927-1.473 5.705 1.959 11.522 7.664 12.993.894.232 1.79.341 2.673.341 4.748 0 9.08-3.194 10.322-8.005 13.353-51.766 60.075-87.922 113.616-87.922z"/></symbol><symbol viewBox="0 0 512 512" id="instr-item5"><path d="M387.111 133.978v-10.003c0-15.845-12.891-28.735-28.735-28.735h-3.135v15.673h3.135c7.201 0 13.061 5.859 13.061 13.061v58.514c0 7.201-5.86 13.061-13.061 13.061h-3.135v15.674h3.135c15.844 0 28.735-12.891 28.735-28.735v-10.004H512v-38.508H387.111zm109.216 22.835H387.111v-7.161h109.216v7.161zm-182.882-95.01H70.142c-13.13 0-24.224 8.857-27.642 20.906-15.687.185-28.394 12.996-28.394 28.726v80.457c0 15.493 12.327 28.154 27.688 28.709 2.24 13.628 14.097 24.059 28.348 24.059h31.017L71.535 353.33H42.498l-10.449 28.952H0v67.915h224.653v-67.915h-32.837l-10.449-28.952h-8.961l6.677-24.492h13.387c8.218 0 15.473-5.539 17.644-13.477l4.306-15.802c1.509-5.546.373-11.346-3.116-15.911-3.488-4.563-8.783-7.181-14.529-7.181h-3.416l8.671-31.807h111.416c15.844 0 28.735-12.891 28.735-28.735V90.538c-.001-15.844-12.891-28.735-28.736-28.735zM41.407 204.872c-6.53-.717-11.628-6.261-11.628-12.978v-80.457c0-6.717 5.098-12.262 11.628-12.979v106.414zM208.98 397.956v36.568H15.673v-36.568H208.98zm-33.827-15.674H48.712l4.793-13.279h116.856l4.792 13.279zm-18.992-28.952H87.78l29.624-108.669h68.381L156.161 353.33zm40.614-61.19c1.125 0 1.784.642 2.076 1.024.294.383.742 1.19.446 2.276l-4.303 15.792a2.625 2.625 0 0 1-2.524 1.932h-9.115l5.731-21.023h7.689zm41.96-63.152H70.142c-7.201 0-13.061-5.86-13.061-13.061V90.539c0-7.203 5.86-13.061 13.061-13.061h168.593v151.51zm87.772-13.061c0 7.201-5.86 13.061-13.061 13.061h-59.037V77.478h59.037c7.201 0 13.061 5.859 13.061 13.061v125.388z"/><path d="M74.71 118.231h15.673v70.008H74.71zm31.347 0h15.674v70.008h-15.674zm31.347 0h15.673v70.008h-15.673z"/></symbol><symbol viewBox="0 0 600.759 600.759" id="map"><path d="M203.993 295.287c21.001 0 38.024 17.023 38.024 38.018s-17.023 38.024-38.024 38.024c-20.998 0-38.021-17.029-38.021-38.024s17.023-38.018 38.021-38.018z"/><path d="M574.267 325.822l25.782-203.262-184.936-70.182-221.834 105.959L0 76.71l26.099 216.848L1.085 507.093l205.36 38.521 209.46-39.892 184.854 42.658-26.492-222.558zM414.428 73.909l163.811 61.731-11.277 88.88-163.273-41.301 10.739-109.31zm-21.669 11.283l-8.642 93.06-.142-.033L270.929 192.8l-.677 2.494c-.142.538-13.258 48.995-27.08 71.033-8.946-5.261-19.006-8.784-29.755-10.09l-9.164-81.028 188.506-90.017zm-17.283 207.574l-98.251 14.815c-5.291-14.969-14.999-27.825-27.606-37.022 12.862-20.531 24.471-60.278 27.394-70.77l106.361-13.728-7.898 106.705zM184.269 176.197l9.079 80.236c-29.864 4.113-54.358 25.2-63.336 53.217l-83.779-12.968-8.045-77.706c27.769-1.838 48.599-10.875 61.948-27 12.034-14.514 15.495-31.685 16.157-44.484l67.976 28.705zM24.187 108.596l84.465 35.668c-.242 11.777-2.905 28.865-14.443 42.791-12.037 14.514-31.182 22.632-56.998 24.261l-13.024-102.72zm-1.09 382.325l20.779-174.402 82.626 12.803c-.062 1.324-.195 2.636-.195 3.989 0 18.164 6.307 34.856 16.807 48.108l-42.912 34.459-13.521 86.959-63.584-11.916zm161.878 30.358l-90.721-17.017 13.104-84.252 40.837-32.781c12.528 12.95 29.48 21.593 48.421 23.377l-11.641 110.673zm-43.246-187.968c0-34.348 27.935-62.281 62.264-62.281 34.347 0 62.282 27.934 62.282 62.281 0 34.33-27.935 62.265-62.282 62.265-34.33.006-62.264-27.935-62.264-62.265zm64.69 191.987l-1.75-.33 12.12-115.119c36.756-6.135 64.9-38.076 64.9-76.556 0-2.081-.15-4.114-.313-6.159l96.038-14.481 8.016 81.911c-42.132 1.98-73.625 14.932-93.449 38.857-23.114 27.923-24.205 62.737-23.008 79.949l-62.554 11.928zm70.247-13.381c-.931-16.337.419-48.397 21.264-73.565 18.438-22.26 48.182-34.271 88.244-36.091l8.535 87.154-118.043 22.502zm126.307-320.946l163.03 41.225-9.776 77.017-160.974-19.431 7.72-98.811zm131.083 184.774l-74.175-8.819 13.584 131.58-59.428-12.773-16.852-176.034 1.732-.272 155.612 19.754 23.022 193.354-96.298-22.213-12.714-124.599 66.111 7.672-.594-7.65z"/></symbol><symbol viewBox="0 0 530.719 530.719" id="map-location"><circle cx="265.36" cy="197.619" r="89.304"/><path d="M265.36 530.719s197.627-223.944 197.627-333.09C462.987 88.482 374.507 0 265.36 0S67.731 88.482 67.731 197.628c0 109.146 197.629 333.091 197.629 333.091zm0-469.548c75.352 0 136.448 61.085 136.448 136.448S340.712 334.066 265.36 334.066c-75.353 0-136.447-61.085-136.447-136.447S190.007 61.171 265.36 61.171z"/></symbol><symbol viewBox="0 0 41.756 41.756" id="modal-close"><path d="M27.948 20.878L40.291 8.536a5 5 0 1 0-7.07-7.071L20.878 13.809 8.535 1.465a5 5 0 0 0-7.07 7.071l12.342 12.342L1.465 33.22a5 5 0 1 0 7.07 7.071l12.343-12.342 12.343 12.343c.976.977 2.256 1.464 3.535 1.464s2.56-.487 3.535-1.464a5 5 0 0 0 0-7.071L27.948 20.878z"/></symbol><symbol viewBox="0 0 306 306" id="owl-next"><path d="M94.35 0l-35.7 35.7L175.95 153 58.65 270.3l35.7 35.7 153-153z"/></symbol><symbol viewBox="0 0 306 306" id="owl-prev"><path d="M247.35 270.3L130.05 153l117.3-117.3L211.65 0l-153 153 153 153z"/></symbol><symbol viewBox="0 0 512 512" id="scroll"><path d="M369.018 46.807C338.818 16.622 298.682 0 256 0 167.87 0 96.169 71.7 96.169 159.831V352.17C96.169 440.3 167.87 512 256 512s159.831-71.7 159.831-159.831V159.831c0-42.682-16.623-82.818-46.813-113.024zm19.723 305.362c0 73.194-59.546 132.741-132.741 132.741s-132.741-59.546-132.741-132.741V159.831C123.259 86.636 182.806 27.09 256 27.09c35.447 0 68.784 13.806 93.863 38.873 25.072 25.084 38.878 58.421 38.878 93.868v192.338z"/><path d="M256.014 83.979c-7.481 0-13.545 6.064-13.545 13.545v31.831c0 7.481 6.064 13.545 13.545 13.545s13.545-6.064 13.545-13.545V97.524c0-7.481-6.065-13.545-13.545-13.545zm0 68.12c-7.481 0-13.545 6.064-13.545 13.545v4.007c0 7.481 6.064 13.545 13.545 13.545s13.545-6.064 13.545-13.545v-4.007c0-7.481-6.065-13.545-13.545-13.545z"/></symbol><symbol viewBox="0 0 56.966 56.966" id="search"><path d="M55.146 51.887L41.588 37.786A22.926 22.926 0 0 0 46.984 23c0-12.682-10.318-23-23-23s-23 10.318-23 23 10.318 23 23 23c4.761 0 9.298-1.436 13.177-4.162l13.661 14.208c.571.593 1.339.92 2.162.92.779 0 1.518-.297 2.079-.837a3.004 3.004 0 0 0 .083-4.242zM23.984 6c9.374 0 17 7.626 17 17s-7.626 17-17 17-17-7.626-17-17 7.626-17 17-17z"/></symbol><symbol viewBox="0 0 473.806 473.806" id="tel"><path d="M374.456 293.506c-9.7-10.1-21.4-15.5-33.8-15.5-12.3 0-24.1 5.3-34.2 15.4l-31.6 31.5c-2.6-1.4-5.2-2.7-7.7-4-3.6-1.8-7-3.5-9.9-5.3-29.6-18.8-56.5-43.3-82.3-75-12.5-15.8-20.9-29.1-27-42.6 8.2-7.5 15.8-15.3 23.2-22.8 2.8-2.8 5.6-5.7 8.4-8.5 21-21 21-48.2 0-69.2l-27.3-27.3c-3.1-3.1-6.3-6.3-9.3-9.5-6-6.2-12.3-12.6-18.8-18.6-9.7-9.6-21.3-14.7-33.5-14.7s-24 5.1-34 14.7l-.2.2-34 34.3c-12.8 12.8-20.1 28.4-21.7 46.5-2.4 29.2 6.2 56.4 12.8 74.2 16.2 43.7 40.4 84.2 76.5 127.6 43.8 52.3 96.5 93.6 156.7 122.7 23 10.9 53.7 23.8 88 26 2.1.1 4.3.2 6.3.2 23.1 0 42.5-8.3 57.7-24.8.1-.2.3-.3.4-.5 5.2-6.3 11.2-12 17.5-18.1 4.3-4.1 8.7-8.4 13-12.9 9.9-10.3 15.1-22.3 15.1-34.6 0-12.4-5.3-24.3-15.4-34.3l-54.9-55.1zm35.8 105.3c-.1 0-.1.1 0 0-3.9 4.2-7.9 8-12.2 12.2-6.5 6.2-13.1 12.7-19.3 20-10.1 10.8-22 15.9-37.6 15.9-1.5 0-3.1 0-4.6-.1-29.7-1.9-57.3-13.5-78-23.4-56.6-27.4-106.3-66.3-147.6-115.6-34.1-41.1-56.9-79.1-72-119.9-9.3-24.9-12.7-44.3-11.2-62.6 1-11.7 5.5-21.4 13.8-29.7l34.1-34.1c4.9-4.6 10.1-7.1 15.2-7.1 6.3 0 11.4 3.8 14.6 7l.3.3c6.1 5.7 11.9 11.6 18 17.9 3.1 3.2 6.3 6.4 9.5 9.7l27.3 27.3c10.6 10.6 10.6 20.4 0 31-2.9 2.9-5.7 5.8-8.6 8.6-8.4 8.6-16.4 16.6-25.1 24.4-.2.2-.4.3-.5.5-8.6 8.6-7 17-5.2 22.7l.3.9c7.1 17.2 17.1 33.4 32.3 52.7l.1.1c27.6 34 56.7 60.5 88.8 80.8 4.1 2.6 8.3 4.7 12.3 6.7 3.6 1.8 7 3.5 9.9 5.3.4.2.8.5 1.2.7 3.4 1.7 6.6 2.5 9.9 2.5 8.3 0 13.5-5.2 15.2-6.9l34.2-34.2c3.4-3.4 8.8-7.5 15.1-7.5 6.2 0 11.3 3.9 14.4 7.3l.2.2 55.1 55.1c10.3 10.2 10.3 20.7.1 31.3zm-154.2-286.1c26.2 4.4 50 16.8 69 35.8s31.3 42.8 35.8 69c1.1 6.6 6.8 11.2 13.3 11.2.8 0 1.5-.1 2.3-.2 7.4-1.2 12.3-8.2 11.1-15.6-5.4-31.7-20.4-60.6-43.3-83.5s-51.8-37.9-83.5-43.3c-7.4-1.2-14.3 3.7-15.6 11s3.5 14.4 10.9 15.6zm217.2 96.3c-8.9-52.2-33.5-99.7-71.3-137.5s-85.3-62.4-137.5-71.3c-7.3-1.3-14.2 3.7-15.5 11-1.2 7.4 3.7 14.3 11.1 15.6 46.6 7.9 89.1 30 122.9 63.7 33.8 33.8 55.8 76.3 63.7 122.9 1.1 6.6 6.8 11.2 13.3 11.2.8 0 1.5-.1 2.3-.2 7.3-1.1 12.3-8.1 11-15.4z"/></symbol><symbol viewBox="0 0 548.358 548.358" id="vk"><path d="M545.451 400.298c-.664-1.431-1.283-2.618-1.858-3.569-9.514-17.135-27.695-38.167-54.532-63.102l-.567-.571-.284-.28-.287-.287h-.288c-12.18-11.611-19.893-19.418-23.123-23.415-5.91-7.614-7.234-15.321-4.004-23.13 2.282-5.9 10.854-18.36 25.696-37.397 7.807-10.089 13.99-18.175 18.556-24.267 32.931-43.78 47.208-71.756 42.828-83.939l-1.701-2.847c-1.143-1.714-4.093-3.282-8.846-4.712-4.764-1.427-10.853-1.663-18.278-.712l-82.224.568c-1.332-.472-3.234-.428-5.712.144l-3.713.859-1.431.715-1.136.859c-.952.568-1.999 1.567-3.142 2.995-1.137 1.423-2.088 3.093-2.848 4.996-8.952 23.031-19.13 44.444-30.553 64.238-7.043 11.803-13.511 22.032-19.418 30.693-5.899 8.658-10.848 15.037-14.842 19.126-4 4.093-7.61 7.372-10.852 9.849-3.237 2.478-5.708 3.525-7.419 3.142-1.715-.383-3.33-.763-4.859-1.143-2.663-1.714-4.805-4.045-6.42-6.995-1.622-2.95-2.714-6.663-3.285-11.136-.568-4.476-.904-8.326-1-11.563-.089-3.233-.048-7.806.145-13.706.198-5.903.287-9.897.287-11.991 0-7.234.141-15.085.424-23.555.288-8.47.521-15.181.716-20.125.194-4.949.284-10.185.284-15.705s-.336-9.849-1-12.991a44.442 44.442 0 0 0-2.99-9.137c-1.335-2.95-3.289-5.232-5.853-6.852-2.569-1.618-5.763-2.902-9.564-3.856-10.089-2.283-22.936-3.518-38.547-3.71-35.401-.38-58.148 1.906-68.236 6.855-3.997 2.091-7.614 4.948-10.848 8.562-3.427 4.189-3.905 6.475-1.431 6.851 11.422 1.711 19.508 5.804 24.267 12.275l1.715 3.429c1.334 2.474 2.666 6.854 3.999 13.134 1.331 6.28 2.19 13.227 2.568 20.837.95 13.897.95 25.793 0 35.689-.953 9.9-1.853 17.607-2.712 23.127-.859 5.52-2.143 9.993-3.855 13.418-1.715 3.426-2.856 5.52-3.428 6.28-.571.76-1.047 1.239-1.425 1.427a21.387 21.387 0 0 1-7.71 1.431c-2.667 0-5.901-1.334-9.707-4-3.805-2.666-7.754-6.328-11.847-10.992-4.093-4.665-8.709-11.184-13.85-19.558-5.137-8.374-10.467-18.271-15.987-29.691l-4.567-8.282c-2.855-5.328-6.755-13.086-11.704-23.267-4.952-10.185-9.329-20.037-13.134-29.554-1.521-3.997-3.806-7.04-6.851-9.134l-1.429-.859c-.95-.76-2.475-1.567-4.567-2.427a30.301 30.301 0 0 0-6.567-1.854l-78.229.568c-7.994 0-13.418 1.811-16.274 5.428l-1.143 1.711c-.571.953-.859 2.475-.859 4.57 0 2.094.571 4.664 1.714 7.707 11.42 26.84 23.839 52.725 37.257 77.659 13.418 24.934 25.078 45.019 34.973 60.237 9.897 15.229 19.985 29.602 30.264 43.112 10.279 13.515 17.083 22.176 20.412 25.981 3.333 3.812 5.951 6.662 7.854 8.565l7.139 6.851c4.568 4.569 11.276 10.041 20.127 16.416 8.853 6.379 18.654 12.659 29.408 18.85 10.756 6.181 23.269 11.225 37.546 15.126 14.275 3.905 28.169 5.472 41.684 4.716h32.834c6.659-.575 11.704-2.669 15.133-6.283l1.136-1.431c.764-1.136 1.479-2.901 2.139-5.276.668-2.379 1-5 1-7.851-.195-8.183.428-15.558 1.852-22.124 1.423-6.564 3.045-11.513 4.859-14.846 1.813-3.33 3.859-6.14 6.136-8.418 2.282-2.283 3.908-3.666 4.862-4.142.948-.479 1.705-.804 2.276-.999 4.568-1.522 9.944-.048 16.136 4.429 6.187 4.473 11.99 9.996 17.418 16.56 5.425 6.57 11.943 13.941 19.555 22.124 7.617 8.186 14.277 14.271 19.985 18.274l5.708 3.426c3.812 2.286 8.761 4.38 14.853 6.283 6.081 1.902 11.409 2.378 15.984 1.427l73.087-1.14c7.229 0 12.854-1.197 16.844-3.572 3.998-2.379 6.373-5 7.139-7.851.764-2.854.805-6.092.145-9.712-.677-3.611-1.344-6.136-2.008-7.563z"/></symbol></svg>