<svg version="1" xmlns="http://www.w3.org/2000/svg" width="348" height="348" viewBox="0 0 261.000000 261.000000"><path d="M85 2.4c-2.5 1.2-12.4 6.2-22 11.1-9.6 4.8-17.9 9.5-18.4 10.4-.5.9-1.1 5.2-1.2 9.6-.2 8.5-.9 20.6-2.9 51-.3 3.8-.7 11-1 16-.3 4.9-.7 11.7-1 15-.2 3.3-.7 10.9-1 17-1 17.9-1.3 23.5-2.1 33.5-1.1 14.1-.7 24.1 1.1 32.8 4.7 21.7 21.2 41.5 29.9 35.9 3.4-2.2 4.4-8 5.1-27.2.3-9.4.7-18.6 1-20.5.2-1.9.7-6 1-9 .4-3 .8-6.9 1-8.5.2-1.7.7-5.3 1-8 .4-2.8.8-6.1 1-7.5.2-1.4.6-4.8.9-7.5.3-2.8.8-6.4 1.1-8 .6-3.9 1.4-10 2.1-15 .4-3.5 2.3-17.1 4-28.5 1.1-8.1 2.3-16.8 2.9-21.5.4-2.8.8-5.7 1-6.5.2-.8.7-3.5 1-6 .3-2.5.8-5.6 1-7 .2-1.4 1.1-7.2 1.9-13 .9-5.8 1.8-11.4 2-12.5.2-1.1.7-4.5 1-7.6.4-3.1.9-6.7 1.1-8 1.1-5.5.8-11.1-.6-12C93.6-.5 89.8 0 85 2.4zM115.5 27.5c-.5.2-2.2.6-3.6.9-4.5 1-5.6 7.1-1.8 10.3 2 1.6 22.2 9.5 36.9 14.3 14.6 4.9 20.8 8.1 27.2 14.6 12.5 12.5 15 32 6.3 50-5.6 11.5-16.6 20.9-30.8 26.3-3.2 1.1-6.1 2.1-6.5 2.1-.4 0-.7-15.3-.7-33.9v-34l-2.9-3c-1.5-1.6-4.8-4-7.1-5.2-3.9-2.1-4.6-2.2-6.9-.9-4.7 2.5-9.6 15.3-13 34-2.6 14.4-3.3 25.7-4.2 72-1.1 57.4-1.1 59.3.3 62.8 2.7 7.1 14 18.6 20.7 21.2 4.5 1.7 11.8 1.2 15.4-1l3.3-2-.6-16.3c-.3-8.9-.8-21.6-1.1-28.2-.2-6.6-.7-18.7-.9-26.9l-.4-15 3.3-3.1c1.8-1.7 6.6-4.3 10.7-5.9 28.3-11 63.5-35.1 68.7-47.3 6-14 4.5-32.5-4-49.9-8.2-16.9-30.6-28.6-62.8-32.9-2.5-.3-7.9-1-12-1.6-7.4-1-31.6-2-33.5-1.4z"/></svg>