<?xml version="1.0" encoding="utf-8"?>
<!-- Generator: Adobe Illustrator 19.0.0, SVG Export Plug-In . SVG Version: 6.00 Build 0)  -->
<svg version="1.1" id="Слой_1" xmlns="http://www.w3.org/2000/svg" xmlns:xlink="http://www.w3.org/1999/xlink" x="0px" y="0px"
	 viewBox="0 0 512 512" style="enable-background:new 0 0 512 512;" xml:space="preserve">
<path d="M493.3,299.9c-4.3,0-9-0.9-13.8-2.7l-0.4-0.1c-0.6-0.3-32.7-13.3-103.5-23c-65.7-9-179-17-345.9-3.7l-0.1,0
	c-14.2,0.9-24.7-6.1-28.1-18.8c-4.6-17.2,4.8-42.5,18.4-49.3c1.5-0.7,2.9-1.4,4.3-2.1c11.3-5.4,14.7-7.1,17.1-24.8
	c1.9-14.2,11.9-49.6,35.9-82.2c30.5-41.4,73.1-63.5,123.1-63.8c54.2-0.3,110.1,8.5,157.3,25c46.7,16.2,79.9,38,93.5,61.2
	c14.6,24.9,22.2,54.7,28.4,78.7c4.1,15.8,8.3,32.2,12.3,36.2c12.8,12.8,21.3,43.6,19.9,56.1c-0.5,4.6-2.3,7.9-5.4,9.8
	C502.5,298.8,498.1,299.9,493.3,299.9z M485.4,281.3c3.6,1.3,7,1.8,9.4,1.5c-0.3-8.5-6.6-31.7-15.2-40.2c-7.3-7.3-11.3-22.7-16.7-44
	c-5.9-22.9-13.2-51.5-26.6-74.3c-22.1-37.8-120.8-77.8-233.1-77.8c-0.9,0-1.9,0-2.8,0c-45.1,0.3-82,19.4-109.5,56.9
	c-22.8,31-31.4,64.2-32.8,74.4c-3.4,25.5-12.4,31-26.6,37.8c-1.3,0.6-2.6,1.3-4,2c-5.4,2.7-12.4,19.4-9.6,29.7
	c0.9,3.5,2.9,6.7,10.5,6.2c169.1-13.5,284.1-5.3,350.7,4C449.7,267.2,482.3,280.1,485.4,281.3z"/>
<path d="M122.7,481c-18,0-34.1-2.8-42.9-7.6l-0.2-0.1c-1.9-1.1-46.8-27.8-49.8-67c-1.6-21.2,9-41.3,31.7-59.9l0.3-0.2
	c9.1-6.9,27.7-12,49.7-13.7c22.9-1.8,45.1,0.4,60.8,6c29.5,10.6,111.2,11.7,159.3-8.6c24.4-10.3,52-11.4,77.7-3.1
	c23.8,7.7,42.4,22.6,49.9,39.9c17.4,40,12,75.6-14.2,95.2c-15.3,11.4-75.9,25.5-114.5,5.2c-56.1-29.5-85.8-41.8-147.8,0
	c-16.6,11.2-41.2,13.5-54.4,14C126.4,481,124.5,481,122.7,481z M88.1,458.6c13.5,7.2,63.1,9.2,85-5.7c32.8-22.1,59.1-31.3,85.2-29.8
	c26.1,1.5,51.7,14,80,28.8c14,7.3,34,10,56.4,7.5c20.2-2.3,35.6-8,40.1-11.3c28.9-21.5,14-62.7,8.8-74.8
	c-10.7-24.6-59.6-47.2-105.4-27.9c-52.5,22.1-139,20.7-171.7,9c-29.8-10.7-81.2-4.5-94.4,5.2c-18,14.8-26.6,30-25.4,45.2
	C48.9,434.4,85.8,457.2,88.1,458.6z"/>
<path d="M143.9,451.9c-16.3,0-31.7-4.5-43.4-12.7c-12.6-8.9-19.6-20.9-19.6-34s7-25.1,19.6-34c11.7-8.2,27.1-12.7,43.4-12.7
	s31.7,4.5,43.4,12.7c12.6,8.9,19.6,20.9,19.6,34s-7,25.1-19.6,34C175.6,447.4,160.1,451.9,143.9,451.9z M143.9,375.4
	c-24.9,0-46,13.6-46,29.8s21.1,29.8,46,29.8s46-13.6,46-29.8S168.8,375.4,143.9,375.4z"/>
<path d="M357.2,443.4c-16.3,0-31.7-4.5-43.4-12.7c-12.6-8.9-19.6-20.9-19.6-34s7-25.1,19.6-34c11.7-8.2,27.1-12.7,43.4-12.7
	s31.7,4.5,43.4,12.7c12.6,8.9,19.6,20.9,19.6,34s-7,25.1-19.6,34C388.9,438.8,373.5,443.4,357.2,443.4z M357.2,366.9
	c-24.9,0-46,13.6-46,29.8s21.1,29.8,46,29.8s46-13.6,46-29.8S382.2,366.9,357.2,366.9z"/>
</svg>
