<?xml version="1.0" encoding="utf-8"?>
<!-- Generator: Adobe Illustrator 19.0.0, SVG Export Plug-In . SVG Version: 6.00 Build 0)  -->
<svg version="1.1" id="Слой_1" xmlns="http://www.w3.org/2000/svg" xmlns:xlink="http://www.w3.org/1999/xlink" x="0px" y="0px"
	 viewBox="0 0 512 512" style="enable-background:new 0 0 512 512;" xml:space="preserve">
<path d="M254.9,491.4c-63.3,0-122.8-24.7-167.6-69.4c-44.8-44.8-69.4-104.3-69.4-167.6c0-63.3,24.7-122.8,69.4-167.6
	s104.3-69.4,167.6-69.4c63.3,0,122.8,24.7,167.6,69.4c44.8,44.8,69.4,104.3,69.4,167.6c0,63.3-24.7,122.8-69.4,167.6
	C377.7,466.8,318.2,491.4,254.9,491.4z M254.9,34.4c-121.3,0-220,98.7-220,220s98.7,220,220,220s220-98.7,220-220
	S376.2,34.4,254.9,34.4z"/>
<path d="M282.6,327.4H226l-4.3-231h66.9L282.6,327.4z M242.7,310.4h23.4l5.1-197H239L242.7,310.4z"/>
<path d="M286.4,417.4h-61.5v-55.5h61.5V417.4z M241.9,400.4h27.5v-21.5h-27.5V400.4z"/>
</svg>
