<?xml version="1.0" encoding="iso-8859-1"?>
<!-- Generator: Adobe Illustrator 19.0.0, SVG Export Plug-In . SVG Version: 6.00 Build 0)  -->
<svg version="1.1" id="Layer_1" xmlns="http://www.w3.org/2000/svg" xmlns:xlink="http://www.w3.org/1999/xlink" x="0px" y="0px"
	 viewBox="0 0 512 512" style="enable-background:new 0 0 512 512;" xml:space="preserve">
<g>
	<g>
		<path d="M499.512,111.811h-34.551l29.33-27.236c3.763-3.494,5.003-8.936,3.126-13.715c-1.877-4.779-6.489-7.924-11.624-7.924
			H87.942c-6.897,0-12.488,5.592-12.488,12.488v178.347c0,6.896,5.591,12.488,12.488,12.488h57.479v42.387
			c0,6.896,5.591,12.488,12.488,12.488h28.669v15.636c0,25.454-20.708,46.161-46.161,46.161H79.851v-28.669
			c0-6.896-5.591-12.488-12.488-12.488H12.488C5.591,341.774,0,347.366,0,354.262v82.315c0,6.896,5.591,12.488,12.488,12.488h54.876
			c6.897,0,12.488-5.592,12.488-12.488v-28.67h60.566c39.225,0,71.137-31.913,71.137-71.137v-15.636h28.67
			c6.897,0,12.488-5.592,12.488-12.488v-42.387h191.925c6.897,0,12.488-5.592,12.488-12.488V219.1h42.387
			c6.897,0,12.488-5.592,12.488-12.488v-82.313C512,117.403,506.409,111.811,499.512,111.811z M54.876,424.091H24.976v-57.339
			h29.901V424.091z M227.735,296.16h-57.339v-29.9h57.339V296.16z M432.148,241.284H100.429v-64.197h289.33
			c3.152,0,6.188-1.191,8.498-3.337l33.891-31.469V241.284z M384.855,152.11H100.429V87.912h353.562L384.855,152.11z
			 M487.024,194.125h-29.901v-57.339h29.901V194.125z"/>
	</g>
</g>
<g>
</g>
<g>
</g>
<g>
</g>
<g>
</g>
<g>
</g>
<g>
</g>
<g>
</g>
<g>
</g>
<g>
</g>
<g>
</g>
<g>
</g>
<g>
</g>
<g>
</g>
<g>
</g>
<g>
</g>
</svg>
