<?xml version="1.0" encoding="utf-8"?>
<!-- Generator: Adobe Illustrator 19.0.0, SVG Export Plug-In . SVG Version: 6.00 Build 0)  -->
<svg version="1.1" id="Слой_1" xmlns="http://www.w3.org/2000/svg" xmlns:xlink="http://www.w3.org/1999/xlink" x="0px" y="0px"
	 viewBox="0 0 512 512" style="enable-background:new 0 0 512 512;" xml:space="preserve">
<path d="M256.4,391.4c-34.4,0-68.7-7.1-101.9-21.2c-26.4-11.2-52.1-26.8-76.5-46.3c-41.4-33.2-64.3-66.1-65.3-67.5l-3.9-5.6l4.6-5
	c1.2-1.3,30.7-33,75.3-65.1c60.4-43.5,116.6-65.6,167.3-65.6c50.6,0,107,22.1,167.6,65.6c44.7,32.1,74.4,63.8,75.6,65.1l4.7,5
	l-3.9,5.6c-1,1.4-23.8,34.2-65.3,67.5c-24.4,19.6-50.1,35.1-76.5,46.3C325.1,384.3,290.8,391.4,256.4,391.4z M30.8,252.3
	C39,262.9,59.2,287.1,89,311c36.2,29,94.6,63.5,167.4,63.5c72.8,0,131.2-34.5,167.4-63.5c29.8-23.9,50-48,58.2-58.6
	c-10.2-10.2-35.3-34.2-68.5-58c-39.6-28.4-99-62.2-157.4-62.2C156.5,132.1,54.1,228.9,30.8,252.3z"/>
<path d="M256,339.1c-47.1,0-85.5-38.4-85.5-85.5s38.4-85.5,85.5-85.5s85.5,38.4,85.5,85.5S303.2,339.1,256,339.1z M256,185.1
	c-37.8,0-68.5,30.7-68.5,68.5s30.7,68.5,68.5,68.5s68.5-30.7,68.5-68.5S293.8,185.1,256,185.1z"/>
</svg>
