<?xml version="1.0" encoding="utf-8"?>
<!-- Generator: Adobe Illustrator 19.0.0, SVG Export Plug-In . SVG Version: 6.00 Build 0)  -->
<svg version="1.1" id="Слой_1" xmlns="http://www.w3.org/2000/svg" xmlns:xlink="http://www.w3.org/1999/xlink" x="0px" y="0px"
	 viewBox="0 0 512 512" style="enable-background:new 0 0 512 512;" xml:space="preserve">
<path d="M295,459.4H178.4c-26.7,0-48.5-21.8-48.5-48.5V205.6c0-26.7,21.8-48.5,48.5-48.5H295c26.7,0,48.5,21.8,48.5,48.5v138.2h-17
	V205.6c0-17.4-14.1-31.5-31.5-31.5H178.4c-17.4,0-31.5,14.1-31.5,31.5v205.3c0,17.4,14.1,31.5,31.5,31.5H295c4.6,0,9-1,13.2-2.9
	l7.2,15.4C309,457.9,302.1,459.4,295,459.4z"/>
<path d="M338,492.1c-2.3,0-4.7-1-6.4-2.9c-31.1-35.1-27.4-69.7-24.3-83.2c-10.9-10.2-40-39.9-49.3-76c-3.9-15.4-2.1-26.3,5.5-32.4
	c12.4-10.1,32.8-0.9,36.8,1c0.8,0.4,1.6,0.9,2.2,1.6l62.3,61c3.4,3.3,3.4,8.7,0.1,12c-3.3,3.4-8.7,3.4-12,0.1l-61.3-60
	c-6.4-2.8-15.1-4.5-17.5-2.6c-1,0.8-2.3,5.1,0.3,15c9.9,38.6,47.5,70.6,47.9,70.9c2.8,2.3,3.8,6.1,2.5,9.5
	c-0.5,1.4-12.5,35.6,19.4,71.7c3.1,3.5,2.8,8.9-0.7,12C342,491.4,340,492.1,338,492.1z"/>
<path d="M453.9,494.1c-2.6,0-5.1-1.2-6.8-3.4l-59-77.7c-1.2-1.6-1.8-3.5-1.7-5.4c0-0.8,2.5-79.1,0.1-98.4c-1.3-10.2-30.3-37-56.4-56
	c-3.8-2.8-4.6-8.1-1.9-11.9c2.8-3.8,8.1-4.6,11.9-1.9c0.6,0.4,14.8,10.8,29.6,23.9c28.4,25.1,32.8,37,33.7,43.8
	c2.3,18.5,0.6,83,0.2,98l57.2,75.3c2.8,3.7,2.1,9.1-1.6,11.9C457.5,493.5,455.7,494.1,453.9,494.1z"/>
<path d="M242.9,405.9c-7.2,0-13-5.8-13-13s5.8-13,13-13s13,5.8,13,13S250,405.9,242.9,405.9z M242.9,388.9c-2.2,0-4,1.8-4,4
	s1.8,4,4,4s4-1.8,4-4S245.1,388.9,242.9,388.9z M201.9,405.9c-7.2,0-13-5.8-13-13s5.8-13,13-13s13,5.8,13,13S209,405.9,201.9,405.9z
	 M201.9,388.9c-2.2,0-4,1.8-4,4s1.8,4,4,4s4-1.8,4-4S204.1,388.9,201.9,388.9z M242.9,364.9c-7.2,0-13-5.8-13-13s5.8-13,13-13
	s13,5.8,13,13S250,364.9,242.9,364.9z M242.9,347.9c-2.2,0-4,1.8-4,4s1.8,4,4,4s4-1.8,4-4S245.1,347.9,242.9,347.9z M201.9,364.9
	c-7.2,0-13-5.8-13-13s5.8-13,13-13s13,5.8,13,13S209,364.9,201.9,364.9z M201.9,347.9c-2.2,0-4,1.8-4,4s1.8,4,4,4s4-1.8,4-4
	S204.1,347.9,201.9,347.9z M242.9,323.9c-7.2,0-13-5.8-13-13s5.8-13,13-13s13,5.8,13,13S250,323.9,242.9,323.9z M242.9,306.9
	c-2.2,0-4,1.8-4,4s1.8,4,4,4s4-1.8,4-4S245.1,306.9,242.9,306.9z M201.9,323.9c-7.2,0-13-5.8-13-13s5.8-13,13-13s13,5.8,13,13
	S209,323.9,201.9,323.9z M201.9,306.9c-2.2,0-4,1.8-4,4s1.8,4,4,4s4-1.8,4-4S204.1,306.9,201.9,306.9z M283.9,282.9
	c-7.2,0-13-5.8-13-13s5.8-13,13-13s13,5.8,13,13S291,282.9,283.9,282.9z M283.9,265.9c-2.2,0-4,1.8-4,4s1.8,4,4,4s4-1.8,4-4
	S286.1,265.9,283.9,265.9z M242.9,282.9c-7.2,0-13-5.8-13-13s5.8-13,13-13s13,5.8,13,13S250,282.9,242.9,282.9z M242.9,265.9
	c-2.2,0-4,1.8-4,4s1.8,4,4,4s4-1.8,4-4S245.1,265.9,242.9,265.9z M201.9,282.9c-7.2,0-13-5.8-13-13s5.8-13,13-13s13,5.8,13,13
	S209,282.9,201.9,282.9z M201.9,265.9c-2.2,0-4,1.8-4,4s1.8,4,4,4s4-1.8,4-4S204.1,265.9,201.9,265.9z M283.9,241.9
	c-7.2,0-13-5.8-13-13s5.8-13,13-13s13,5.8,13,13S291,241.9,283.9,241.9z M283.9,224.9c-2.2,0-4,1.8-4,4s1.8,4,4,4s4-1.8,4-4
	S286.1,224.9,283.9,224.9z M242.9,241.9c-7.2,0-13-5.8-13-13s5.8-13,13-13s13,5.8,13,13S250,241.9,242.9,241.9z M242.9,224.9
	c-2.2,0-4,1.8-4,4s1.8,4,4,4s4-1.8,4-4S245.1,224.9,242.9,224.9z M201.9,241.9c-7.2,0-13-5.8-13-13s5.8-13,13-13s13,5.8,13,13
	S209,241.9,201.9,241.9z M201.9,224.9c-2.2,0-4,1.8-4,4s1.8,4,4,4s4-1.8,4-4S204.1,224.9,201.9,224.9z"/>
<path d="M122,90.6c-2.1,0-4.2-0.8-5.8-2.3c-3.4-3.2-3.6-8.6-0.3-12c32.2-34.1,75.7-52.8,122.5-52.8c46.1,0,89.2,18.3,121.2,51.5
	c3.3,3.4,3.2,8.8-0.2,12c-3.4,3.3-8.8,3.2-12-0.2c-28.8-29.9-67.5-46.3-109-46.3c-42.1,0-81.2,16.9-110.2,47.5
	C126.5,89.7,124.3,90.6,122,90.6z"/>
<path d="M150.4,117c-2.3,0-4.5-0.9-6.2-2.7c-3.2-3.4-3.1-8.8,0.4-12c25.9-24.4,59.8-37.9,95.5-37.9c33.6,0,66,12.1,91.3,34.1
	c3.5,3.1,3.9,8.4,0.8,12c-3.1,3.5-8.4,3.9-12,0.8c-22.2-19.3-50.7-30-80.2-30c-31.3,0-61.1,11.8-83.8,33.3
	C154.5,116.2,152.4,117,150.4,117z"/>
<path d="M179.8,144c-2.3,0-4.6-0.9-6.3-2.8c-3.1-3.5-2.9-8.9,0.6-12c17.9-16.1,41.1-25,65.2-25c23.7,0,46.5,8.6,64.3,24.2
	c3.5,3.1,3.9,8.5,0.8,12c-3.1,3.5-8.5,3.9-12,0.8c-14.7-12.9-33.5-20-53.1-20c-19.9,0-39,7.3-53.8,20.6
	C183.9,143.3,181.9,144,179.8,144z"/>
</svg>
