<?xml version="1.0" encoding="utf-8"?>
<!-- Generator: Adobe Illustrator 19.0.0, SVG Export Plug-In . SVG Version: 6.00 Build 0)  -->
<svg version="1.1" id="Слой_1" xmlns="http://www.w3.org/2000/svg" xmlns:xlink="http://www.w3.org/1999/xlink" x="0px" y="0px"
	 viewBox="0 0 512 512" style="enable-background:new 0 0 512 512;" xml:space="preserve">
<path d="M141.6,208c-51,0-92.4-41.5-92.4-92.4s41.5-92.4,92.4-92.4s92.4,41.5,92.4,92.4S192.6,208,141.6,208z M141.6,40.1
	c-41.6,0-75.4,33.8-75.4,75.4S100,191,141.6,191s75.4-33.8,75.4-75.4S183.2,40.1,141.6,40.1z"/>
<path d="M312.6,208c-51,0-92.4-41.5-92.4-92.4s41.5-92.4,92.4-92.4s92.4,41.5,92.4,92.4S363.6,208,312.6,208z M312.6,40.1
	c-41.6,0-75.4,33.8-75.4,75.4S271,191,312.6,191s75.4-33.8,75.4-75.4S354.2,40.1,312.6,40.1z"/>
<path d="M379.7,398.8H68.4c-4.7,0-8.5-3.8-8.5-8.5v-184c0-4.7,3.8-8.5,8.5-8.5h311.3c4.7,0,8.5,3.8,8.5,8.5v184
	C388.2,395,384.4,398.8,379.7,398.8z M76.9,381.8h294.3v-167H76.9V381.8z"/>
<path d="M452.4,358.1c-0.6,0-1.1-0.1-1.7-0.2L378,343.3l3.4-16.7l62.5,12.6v-86.1l-62.7,11.3l-3-16.7l72.7-13.1c2.5-0.4,5,0.2,7,1.8
	c1.9,1.6,3,4,3,6.5v106.7c0,2.5-1.1,5-3.1,6.6C456.2,357.4,454.3,358.1,452.4,358.1z"/>
<path d="M128.4,490.1c-2.2,0-4.5-0.9-6.1-2.6c-3.2-3.4-3.1-8.8,0.3-12l95.7-91.3c3.4-3.2,8.7-3.1,12,0.2l88.6,91.3
	c3.3,3.4,3.2,8.8-0.2,12c-3.4,3.3-8.8,3.2-12-0.2l-82.7-85.3l-89.6,85.5C132.6,489.3,130.5,490.1,128.4,490.1z"/>
</svg>
