<?xml version="1.0" encoding="utf-8"?>
<!-- Generator: Adobe Illustrator 19.0.0, SVG Export Plug-In . SVG Version: 6.00 Build 0)  -->
<svg version="1.1" id="Слой_1" xmlns="http://www.w3.org/2000/svg" xmlns:xlink="http://www.w3.org/1999/xlink" x="0px" y="0px"
	 viewBox="0 0 512 512" style="enable-background:new 0 0 512 512;" xml:space="preserve">
<path d="M256,469.4c-1.7,0-3.3-0.5-4.8-1.5c-41.5-28.4-77.4-64.3-106.6-106.6c-23.3-33.8-42.4-71.8-56.8-112.8
	c-24.5-69.9-26.8-124-26.9-126.2c-0.1-2.5,0.9-4.9,2.7-6.6c1.8-1.7,4.3-2.5,6.8-2.2c31.9,4,73.6-5.3,114.5-25.4
	c16.4-8.1,31.7-17.5,43.1-26.5c12.3-9.7,15.9-15.6,16.3-17.3c0-0.1,0-0.2,0-0.3c0-4.6,3.6-8.3,8.2-8.5c4.6-0.2,8.5,3.3,8.8,7.9
	c0,0.2,0,0.3,0,0.5c1,4.7,17.4,22.8,53.2,40.8c22.6,11.5,68.6,30.4,121.6,28.8c2.6-0.1,5,1,6.7,2.9c1.7,1.9,2.4,4.5,1.9,7
	c-0.8,4.7-1.7,9.5-2.5,14.4c-7.7,44.3-17.2,99.4-42.6,156.6c-29.7,67-75,123.7-138.4,173.2C259.7,468.8,257.9,469.4,256,469.4z
	 M78.6,131.3c1.8,18.4,7.5,61.4,25.4,112.2c21.4,60.8,65,145.6,151.7,206.9c133.6-107,154.5-227.3,169.8-315.4
	c0.3-1.5,0.5-3,0.8-4.4c-75.6-1.1-142.8-39-168.4-63.8c-1.8-1.8-3.4-3.5-4.9-5.1c-1.5,1.7-3.2,3.4-5.1,5.3
	c-16.6,15.8-45.6,33.3-75.7,45.6C148.1,122.3,113.2,133,78.6,131.3z"/>
<path d="M243.4,313.4c-2.2,0-4.4-0.8-6-2.5l-58-58c-3.3-3.3-3.3-8.7,0-12c3.3-3.3,8.7-3.3,12,0l52,52l100-100c3.3-3.3,8.7-3.3,12,0
	c3.3,3.3,3.3,8.7,0,12l-106,106C247.7,312.6,245.5,313.4,243.4,313.4z"/>
</svg>
