<?xml version="1.0" encoding="utf-8"?>
<!-- Generator: Adobe Illustrator 19.0.0, SVG Export Plug-In . SVG Version: 6.00 Build 0)  -->
<svg version="1.1" id="Слой_1" xmlns="http://www.w3.org/2000/svg" xmlns:xlink="http://www.w3.org/1999/xlink" x="0px" y="0px"
	 viewBox="0 0 512 512" style="enable-background:new 0 0 512 512;" xml:space="preserve">
<path d="M220.2,335.4c-1.9,0-3.7-0.6-5.3-1.8l-81.7-64.5L32.7,281.4c-3.2,0.4-6.4-1.1-8.1-3.8l-18-27.3c-1.3-2-1.7-4.4-1.2-6.7
	s2-4.2,4.1-5.4L362.1,36.9c0.6-0.3,1.2-0.6,1.8-0.8c1.4-0.4,35.1-10,55.1,15.6c16.6,21.2,46.5,79.8,49.2,85.1
	c1.7,2.9,11,19.4,6.5,36.6c-2.7,10.5-9.8,19-21.1,25c-31.5,17-227.2,134.6-229.2,135.8C223.2,335,221.7,335.4,220.2,335.4z
	 M135.7,251.8c1.9,0,3.8,0.6,5.3,1.8l79.9,63c31.7-19,195.5-117.3,224.8-133.1c7-3.8,11.2-8.5,12.7-14.4c2.9-11.3-4.6-23.5-4.7-23.6
	c-0.1-0.2-0.3-0.5-0.4-0.7c-0.3-0.6-31.7-62.2-47.6-82.6c-11.6-14.8-31.7-11-36.1-10L25.8,248.5l10.1,15.4l98.8-12
	C135,251.8,135.4,251.8,135.7,251.8z"/>
<path d="M105,388.1c-0.7,0-1.4-0.1-2.1-0.3c-2.2-0.5-4.1-2-5.2-3.9l-39.3-66c-1.2-2-1.5-4.4-0.9-6.7s2.2-4.1,4.2-5.2l39.3-20.7
	c4.2-2.2,9.3-0.6,11.5,3.6c2.2,4.2,0.6,9.3-3.6,11.5L77.6,317l30.4,50.9l72-43.6c4-2.4,9.2-1.1,11.7,2.9s1.1,9.2-2.9,11.7l-79.3,48
	C108.1,387.7,106.6,388.1,105,388.1z"/>
<path d="M307.5,321.2c-17.5,0-33-11.9-40.5-20.6l12.9-11.1c0.9,1,21.1,23.8,40.4,10.4c22.9-15.8,24.8-24.1,20.2-48.3l16.7-3.1
	c5.4,29.1,2.9,44.6-27.3,65.4C322.4,319.1,314.7,321.2,307.5,321.2z"/>
<path d="M481.7,488.1c-4.7,0-8.5-3.8-8.5-8.5V292.9c0-4.7,3.8-8.5,8.5-8.5s8.5,3.8,8.5,8.5v186.7
	C490.2,484.3,486.4,488.1,481.7,488.1z"/>
<path d="M342.2,394.8c-11.7,0-33.1-8-38.5-39.1c-5.7-33-7-41.3-7.1-41.7c-0.8-4.6,2.4-9,7-9.7c4.6-0.7,9,2.4,9.8,7
	c0,0.1,1.4,8.6,7.1,41.5c1.9,11.1,6.4,18.7,13.3,22.5c4.6,2.5,8.7,2.5,8.8,2.5c0.2,0,0.3,0,0.5,0h134c4.7,0,8.5,3.8,8.5,8.5
	s-3.8,8.5-8.5,8.5H343.2C342.9,394.8,342.6,394.8,342.2,394.8z"/>
</svg>
