<?xml version="1.0" encoding="utf-8"?>
<!-- Generator: Adobe Illustrator 19.0.0, SVG Export Plug-In . SVG Version: 6.00 Build 0)  -->
<svg version="1.1" id="Capa_1" xmlns="http://www.w3.org/2000/svg" xmlns:xlink="http://www.w3.org/1999/xlink" x="0px" y="0px"
	 viewBox="-72 195.9 451 451" style="enable-background:new -72 195.9 451 451;" xml:space="preserve">
<g>
	<path d="M375,623.9L265.4,514.3c29.4-33.8,47.2-77.9,47.2-126.1c0-106.1-86.3-192.3-192.3-192.3c-106.1,0-192.3,86.3-192.3,192.3
		s86.3,192.3,192.3,192.3c48.2,0,92.3-17.8,126.1-47.2L356,642.9c2.6,2.6,6.1,4,9.5,4s6.9-1.3,9.5-4
		C380.3,637.7,380.3,629.1,375,623.9z M-45,388.2c0-91.2,74.2-165.3,165.3-165.3c91.2,0,165.3,74.2,165.3,165.3
		s-74.1,165.4-165.3,165.4C29.2,553.6-45,479.4-45,388.2z"/>
</g>
<path d="M-39.6,389.3l4.5-9.7l6.4-13.1H-17v45.8h-12.7v-19.3h-0.2l-2.5,5.6l-2.9,6.5H-44l-3.1-6.5l-2.5-5.6h-0.2v19.3h-12.6v-45.8
	h11.4l6.4,13.2l4.7,9.6H-39.6z M36.6,412.3H19.5l23.6-66.4H32v9.4H16.1v-25.1h45.4v14.2L36.6,412.3z M94.4,412.3H77.3l23.6-66.4
	H89.8v9.4H73.9v-25.1h45.4v14.2L94.4,412.3z M152.2,412.3h-17.1l23.6-66.4h-11.1v9.4h-15.9v-25.1h45.4v14.2L152.2,412.3z M233,389.3
	l4.5-9.7l6.4-13.1h11.7v45.8h-12.7v-19.3h-0.2l-2.5,5.6l-2.9,6.5h-8.7l-3.1-6.5l-2.5-5.6H223v19.3h-12.6v-45.8h11.4l6.4,13.2
	l4.7,9.6H233z M286.3,389.3l4.5-9.7l6.4-13.1h11.7v45.8h-12.7v-19.3h-0.2l-2.5,5.6l-2.9,6.5H282l-3.1-6.5l-2.5-5.6h-0.2v19.3h-12.6
	v-45.8h11.4l6.4,13.2l4.7,9.6H286.3z"/>
</svg>
