<?xml version="1.0" encoding="utf-8"?>
<!-- Generator: Adobe Illustrator 19.0.0, SVG Export Plug-In . SVG Version: 6.00 Build 0)  -->
<svg version="1.1" id="Слой_1" xmlns="http://www.w3.org/2000/svg" xmlns:xlink="http://www.w3.org/1999/xlink" x="0px" y="0px"
	 viewBox="0 0 512 512" style="enable-background:new 0 0 512 512;" xml:space="preserve">
<path d="M257,492.4c-62.2,0-120.7-24.2-164.6-68.2S24.2,321.8,24.2,259.6C24.2,197.4,48.4,139,92.4,95S194.8,26.8,257,26.8
	c62.2,0,120.7,24.2,164.6,68.2s68.2,102.4,68.2,164.6c0,62.2-24.2,120.7-68.2,164.6S319.2,492.4,257,492.4z M257,43.8
	c-119,0-215.8,96.8-215.8,215.8c0,119,96.8,215.8,215.8,215.8c119,0,215.8-96.8,215.8-215.8C472.9,140.6,376,43.8,257,43.8z"/>
<g>
	<path d="M131.8,283.1c4.7,2.5,11.9,5,19.3,5c8,0,12.2-3.4,12.2-8.6c0-5-3.7-7.8-12.9-11.2c-12.8-4.6-21.1-12-21.1-23.6
		c0-13.6,11-24,29.1-24c8.7,0,15.1,1.9,19.6,4l-3.9,14.6c-3.1-1.5-8.6-3.8-16.1-3.8s-11.2,3.6-11.2,7.7c0,5.1,4.3,7.3,14.3,11.2
		c13.6,5.2,20,12.5,20,23.8c0,13.4-9.9,24.7-31.1,24.7c-8.8,0-17.5-2.4-21.8-4.9L131.8,283.1z"/>
	<path d="M207.8,237.1h-20.7v-15.2h59.2v15.2h-21v64.6h-17.5V237.1z"/>
	<path d="M322.7,261c0,26.2-15.3,42-37.8,42c-22.8,0-36.2-17.9-36.2-40.6c0-23.9,14.7-41.8,37.5-41.8
		C309.7,220.6,322.7,239,322.7,261z M267,262c0,15.6,7.1,26.6,18.7,26.6c11.8,0,18.5-11.6,18.5-27.1c0-14.3-6.6-26.6-18.6-26.6
		C273.9,234.9,267,246.5,267,262z"/>
	<path d="M334.1,223c5.4-0.9,12.9-1.7,23.5-1.7c10.7,0,18.4,2.1,23.5,6.4c4.9,4,8.2,10.7,8.2,18.5c0,7.8-2.5,14.4-7.1,18.9
		c-5.9,5.8-14.7,8.4-25,8.4c-2.3,0-4.3-0.1-5.9-0.4v28.5h-17.2V223z M351.3,259.2c1.5,0.4,3.3,0.5,5.8,0.5c9.3,0,15-4.9,15-13
		c0-7.3-4.9-11.7-13.6-11.7c-3.5,0-5.9,0.4-7.2,0.7V259.2z"/>
</g>
</svg>
