<?xml version="1.0" encoding="iso-8859-1"?>
<!-- Generator: Adobe Illustrator 19.0.0, SVG Export Plug-In . SVG Version: 6.00 Build 0)  -->
<svg version="1.1" id="Layer_1" xmlns="http://www.w3.org/2000/svg" xmlns:xlink="http://www.w3.org/1999/xlink" x="0px" y="0px"
	 viewBox="0 0 512.015 512.015" style="enable-background:new 0 0 512.015 512.015;" xml:space="preserve">
<g transform="translate(-1)">
	<g>
		<path d="M470.348,32.007c-20.644,0-37.852,14.644-41.809,34.116l-25.653,8.551H54.732c-35.325,0-61.053,33.204-51.852,67.353
			l41.587,148.965c6.249,23.246,27.52,39.554,51.801,39.554l267.403,0.128c0.002,0,0.004,0,0.005,0c0.002,0,0.003,0,0.005,0
			c17.679,0,32,14.321,32,32s-14.321,32-32,32h-3.654c-8.784-24.858-32.474-42.667-60.346-42.667
			c-27.872,0-51.562,17.808-60.346,42.667h-71.308c-8.784-24.858-32.474-42.667-60.346-42.667s-51.562,17.808-60.346,42.667H22.344
			c-11.782,0-21.333,9.551-21.333,21.333c0,11.782,9.551,21.333,21.333,21.333h24.992c8.784,24.858,32.474,42.667,60.346,42.667
			s51.562-17.808,60.346-42.667h71.308c8.784,24.858,32.474,42.667,60.346,42.667c27.872,0,51.562-17.808,60.346-42.667h3.654
			c41.243,0,74.667-33.423,74.667-74.667c0-32.416-20.652-59.99-49.515-70.314l36.006-180.029l17.205-5.735
			c7.531,6.682,17.438,10.745,28.304,10.745c23.573,0,42.667-19.093,42.667-42.667C513.015,51.101,493.922,32.007,470.348,32.007z
			 M107.682,437.341c-11.791,0-21.333-9.542-21.333-21.333s9.542-21.333,21.333-21.333c11.292,0,20.497,8.757,21.259,19.853
			c-0.034,0.491-0.075,0.98-0.075,1.48s0.041,0.989,0.075,1.48C128.178,428.584,118.973,437.341,107.682,437.341z M299.682,437.341
			c-11.791,0-21.333-9.542-21.333-21.333s9.542-21.333,21.333-21.333s21.333,9.542,21.333,21.333S311.473,437.341,299.682,437.341z
			 M85.617,279.716L44.027,130.74c-1.815-6.739,3.346-13.4,10.706-13.4h325.594l-34.132,170.658l-249.916-0.12
			C91.286,287.879,86.909,284.524,85.617,279.716z"/>
	</g>
</g>
<g>
</g>
<g>
</g>
<g>
</g>
<g>
</g>
<g>
</g>
<g>
</g>
<g>
</g>
<g>
</g>
<g>
</g>
<g>
</g>
<g>
</g>
<g>
</g>
<g>
</g>
<g>
</g>
<g>
</g>
</svg>
