<?xml version="1.0" encoding="iso-8859-1"?>
<!-- Generator: Adobe Illustrator 17.1.0, SVG Export Plug-In . SVG Version: 6.00 Build 0)  -->
<!DOCTYPE svg PUBLIC "-//W3C//DTD SVG 1.1//EN" "http://www.w3.org/Graphics/SVG/1.1/DTD/svg11.dtd">
<svg version="1.1" id="Capa_1" xmlns="http://www.w3.org/2000/svg" xmlns:xlink="http://www.w3.org/1999/xlink" x="0px" y="0px"
	 viewBox="0 0 495 495" style="enable-background:new 0 0 495 495;" xml:space="preserve">
<g>
	<path d="M487.5,144H375v-8.5c0-3.229-2.066-6.094-5.128-7.115l-24-8c-0.765-0.255-1.565-0.385-2.372-0.385H327v-0.5
		c0-4.142-3.358-7.5-7.5-7.5H295v-0.5c0-4.142-3.358-7.5-7.5-7.5H36.591C16.415,104,0,120.415,0,140.591v53.818
		c0,17.146,11.854,31.576,27.798,35.523L1.836,372.728c-0.825,4.535,0.396,9.166,3.35,12.704c2.954,3.539,7.291,5.568,11.9,5.568
		H83.5c10.752,0,19.5-8.748,19.5-19.5c0-10.302-8.029-18.763-18.158-19.454L98.123,279H127.5c2.518,0,4.861-1.281,6.25-3.382
		c1.389-2.101,1.623-4.775,0.636-7.092c-0.075-0.175-6.857-16.542-1.336-37.526h54.422c14.249,0,28.181-2.683,41.41-7.975
		L280,202.578V216h-8.5c-4.142,0-7.5,3.358-7.5,7.5s3.358,7.5,7.5,7.5h8.5v121h-0.5c-4.142,0-7.5,3.358-7.5,7.5s3.358,7.5,7.5,7.5
		h48c4.142,0,7.5-3.358,7.5-7.5s-3.358-7.5-7.5-7.5H327V231h8.5c4.142,0,7.5-3.358,7.5-7.5s-3.358-7.5-7.5-7.5H327v-33h16.5
		c0.806,0,1.607-0.13,2.372-0.385l24-8c3.063-1.021,5.128-3.887,5.128-7.115V159h112.5c4.142,0,7.5-3.358,7.5-7.5
		S491.642,144,487.5,144z M70.105,364.306c1.425,1.707,3.534,2.694,5.758,2.694H83.5c2.481,0,4.5,2.019,4.5,4.5s-2.019,4.5-4.5,4.5
		H17.086c-0.07,0-0.234,0-0.384-0.18s-0.121-0.341-0.108-0.41l1.529-8.41H47.5c4.142,0,7.5-3.358,7.5-7.5s-3.358-7.5-7.5-7.5H20.85
		l23.12-127.158c0.398-2.188-0.196-4.44-1.621-6.147c-1.425-1.707-3.534-2.694-5.758-2.694C24.686,216,15,206.314,15,194.409
		v-53.818C15,128.686,24.686,119,36.591,119H176v97h-75.409c-3.625,0-6.73,2.592-7.379,6.158l-24.727,136
		C68.087,360.347,68.681,362.598,70.105,364.306z M117.51,264h-16.66l6-33h10.775C114.748,244.5,115.871,256.156,117.51,264z
		 M223.311,209.098c-10.354,4.142-21.209,6.418-32.311,6.819V119h89v0.5v66.922L223.311,209.098z M312,352h-17V231h17V352z M295,216
		v-24.349c0-0.008,0-0.016,0-0.024V127h17v89H295z M360,162.094L342.283,168H327v-33h15.283L360,140.906V162.094z"/>
	<path d="M159.5,191c4.142,0,7.5-3.358,7.5-7.5v-32c0-4.142-3.358-7.5-7.5-7.5s-7.5,3.358-7.5,7.5v32
		C152,187.642,155.358,191,159.5,191z"/>
	<path d="M135.5,191c4.142,0,7.5-3.358,7.5-7.5v-32c0-4.142-3.358-7.5-7.5-7.5s-7.5,3.358-7.5,7.5v32
		C128,187.642,131.358,191,135.5,191z"/>
	<path d="M111.5,191c4.142,0,7.5-3.358,7.5-7.5v-32c0-4.142-3.358-7.5-7.5-7.5s-7.5,3.358-7.5,7.5v32
		C104,187.642,107.358,191,111.5,191z"/>
</g>
<g>
</g>
<g>
</g>
<g>
</g>
<g>
</g>
<g>
</g>
<g>
</g>
<g>
</g>
<g>
</g>
<g>
</g>
<g>
</g>
<g>
</g>
<g>
</g>
<g>
</g>
<g>
</g>
<g>
</g>
</svg>
