<?xml version="1.0" encoding="iso-8859-1"?>
<!-- Generator: Adobe Illustrator 19.0.0, SVG Export Plug-In . SVG Version: 6.00 Build 0)  -->
<svg version="1.1" id="Layer_1" xmlns="http://www.w3.org/2000/svg" xmlns:xlink="http://www.w3.org/1999/xlink" x="0px" y="0px"
	 viewBox="0 0 512.002 512.002" style="enable-background:new 0 0 512.002 512.002;" xml:space="preserve">
<g>
	<g>
		<g>
			<path d="M181.335,164.453c-52.935,0-96.001,43.066-96.001,96.001c0,52.935,43.066,96.001,96.001,96.001
				c52.935,0,96.001-43.066,96.001-96.001C277.336,207.519,234.27,164.453,181.335,164.453z M181.335,335.12
				c-41.17,0-74.666-33.496-74.666-74.666c0-41.172,33.496-74.666,74.666-74.666c41.172,0,74.666,33.494,74.666,74.666
				C256,301.623,222.507,335.12,181.335,335.12z"/>
			<path d="M204.483,282.557c-6.092,6.379-14.314,9.894-23.15,9.894c-5.89,0-10.667,4.776-10.667,10.667
				c0,5.89,4.778,10.667,10.667,10.667c14.722,0,28.421-5.859,38.58-16.495c4.069-4.261,3.913-11.013-0.348-15.083
				C215.302,278.141,208.552,278.294,204.483,282.557z"/>
			<path d="M224,249.786c-5.892,0-10.667,4.776-10.667,10.667c0,0.25-0.006,0.5-0.011,0.744c-0.133,5.89,4.534,10.774,10.423,10.905
				c0.081,0.002,0.162,0.004,0.244,0.004c5.78,0,10.53-4.619,10.661-10.427c0.008-0.402,0.017-0.815,0.017-1.226
				C234.668,254.561,229.891,249.786,224,249.786z"/>
			<path d="M288.001,335.118c-17.647,0-32.002,14.355-32.002,32.003c0,17.645,14.355,32.002,32.002,32.002
				c17.645,0,32.003-14.357,32.003-32.002C320.003,349.473,305.646,335.118,288.001,335.118z M288.001,377.788
				c-5.882,0-10.667-4.785-10.667-10.667s4.785-10.667,10.667-10.667c5.882,0,10.667,4.785,10.667,10.667
				S293.883,377.788,288.001,377.788z"/>
			<path d="M501.333,324.452c-5.892,0-10.667,4.776-10.667,10.667H362.668V233.506c0-3.492-0.127-7.001-0.367-10.499l12.028-3.223
				c5.231-1.402,8.582-6.501,7.795-11.859c-5.517-37.453-22.71-71.529-49.722-98.539c-27.01-27.01-61.084-44.205-98.539-49.722
				c-5.355-0.783-10.457,2.562-11.859,7.795l-3.223,12.028c-3.5-0.24-7.009-0.367-10.497-0.367H46.598
				C20.904,79.118,0,100.022,0,125.716v269.475c0,25.692,20.904,46.596,46.598,46.596H316.07h35.872
				c0.021,0,0.039,0.002,0.061,0.002s0.042-0.002,0.063-0.002h49.654c0.021,0,0.039,0.002,0.061,0.002
				c0.021,0,0.042-0.002,0.063-0.002h49.654c0.021,0,0.042,0.002,0.063,0.002c0.021,0,0.039-0.002,0.061-0.002h39.046
				c0,5.89,4.776,10.665,10.667,10.665c5.891,0,10.667-4.776,10.667-10.668v-10.665v-85.331V335.12
				C512,329.227,507.222,324.452,501.333,324.452z M341.334,395.191c0,13.929-11.332,25.261-25.263,25.261H46.598
				c-13.931,0-25.263-11.332-25.263-25.261V125.716c0-13.931,11.332-25.263,25.263-25.263h161.685c1.615,0,3.233,0.029,4.855,0.09
				l-2.278,8.501c-0.809,3.012-0.256,6.228,1.508,8.799c1.767,2.571,4.569,4.24,7.669,4.569
				c52.039,5.517,93.817,47.295,99.337,99.337c0.33,3.1,1.998,5.902,4.569,7.669c0.402,0.275,0.825,0.511,1.255,0.728
				c0.118,0.061,0.24,0.114,0.363,0.169c0.346,0.158,0.7,0.298,1.06,0.419c0.104,0.033,0.204,0.073,0.308,0.105
				c0.452,0.135,0.911,0.242,1.375,0.315c0.104,0.017,0.21,0.022,0.317,0.037c0.375,0.048,0.75,0.077,1.13,0.083
				c0.077,0.002,0.155,0.019,0.232,0.019c0.069,0,0.138-0.013,0.206-0.015c0.289-0.004,0.577-0.027,0.867-0.057
				c0.14-0.015,0.279-0.021,0.421-0.042c0.425-0.061,0.848-0.14,1.267-0.252l8.501-2.278c0.061,1.621,0.09,3.24,0.09,4.857V395.191z
				 M338.702,207.243c-1.323-6.519-3.128-12.871-5.373-19.018c-15.728-43.016-53.15-75.891-98.786-85.142l5.532-20.639
				c59.384,12.58,106.687,59.883,119.267,119.267L338.702,207.243z M490.665,420.451h-28.44V402.95
				c0-5.89-4.778-10.668-10.667-10.668c-5.892,0-10.667,4.778-10.667,10.668v17.501h-28.444V402.95
				c0-5.89-4.776-10.668-10.667-10.668c-5.891,0-10.667,4.778-10.667,10.668v17.501H362.67v-31.996c0-0.015-0.002-0.027-0.002-0.042
				v-31.959h127.997V420.451z"/>
			<path d="M53.34,249.105c-5.892,0-10.668,4.776-10.668,10.667l-0.002,0.682c0,5.89,4.776,10.667,10.667,10.667
				c5.89,0,10.667-4.778,10.667-10.667l0.002-0.682C64.007,253.88,59.229,249.105,53.34,249.105z"/>
			<path d="M181.332,143.125c5.892,0,10.668-4.778,10.668-10.667c0-5.892-4.776-10.667-10.668-10.667
				c-63.273,0-118.49,42.736-134.275,103.927c-1.473,5.705,1.959,11.522,7.664,12.993c0.894,0.232,1.79,0.341,2.673,0.341
				c4.748,0,9.08-3.194,10.322-8.005C81.069,179.281,127.791,143.125,181.332,143.125z"/>
		</g>
	</g>
</g>
<g>
</g>
<g>
</g>
<g>
</g>
<g>
</g>
<g>
</g>
<g>
</g>
<g>
</g>
<g>
</g>
<g>
</g>
<g>
</g>
<g>
</g>
<g>
</g>
<g>
</g>
<g>
</g>
<g>
</g>
</svg>
