<?xml version="1.0" encoding="iso-8859-1"?>
<!-- Generator: Adobe Illustrator 19.0.0, SVG Export Plug-In . SVG Version: 6.00 Build 0)  -->
<svg version="1.1" id="Layer_1" xmlns="http://www.w3.org/2000/svg" xmlns:xlink="http://www.w3.org/1999/xlink" x="0px" y="0px"
	 viewBox="0 0 512 512" style="enable-background:new 0 0 512 512;" xml:space="preserve">
<g>
	<g>
		<path d="M404.546,138.492c-0.86-1.825-2.412-3.235-4.312-3.917l-74.4-26.715c-3.957-1.42-8.313,0.635-9.734,4.59l-17.987,50.071
			c-0.682,1.9-0.582,3.993,0.279,5.818c0.86,1.826,2.411,3.235,4.312,3.917l74.408,26.722c0.833,0.299,1.704,0.449,2.572,0.449
			c1.112,0,2.221-0.244,3.246-0.727c1.826-0.861,3.235-2.412,3.917-4.313l17.979-50.079
			C405.508,142.41,405.408,140.317,404.546,138.492z M325.744,164.359l-10.733-3.854l12.842-35.748l10.726,3.852L325.744,164.359z
			 M350.036,173.082l-9.969-3.58l12.837-35.749l9.973,3.581L350.036,173.082z M375.094,182.082l-10.733-3.855l12.841-35.748
			l10.727,3.851L375.094,182.082z"/>
	</g>
</g>
<g>
	<g>
		<path d="M73.499,429.606c-8.547-8.547-22.455-8.547-31.004,0c-8.543,8.543-8.541,22.449,0.007,30.996
			c4.272,4.271,9.883,6.407,15.495,6.407c5.611,0,11.223-2.136,15.495-6.407C82.04,452.055,82.043,438.15,73.499,429.606z
			 M62.728,449.839c-2.609,2.608-6.854,2.609-9.463,0c-2.613-2.613-2.616-6.862-0.007-9.47c1.307-1.307,3.023-1.96,4.739-1.96
			s3.433,0.654,4.739,1.959C65.344,442.977,65.341,447.226,62.728,449.839z"/>
	</g>
</g>
<g>
	<g>
		<path d="M485.585,33.956c-1.772-2.004-4.466-2.931-7.096-2.44s-4.809,2.326-5.74,4.833l-31.228,84.138l-109.842-40.66
			c7.689-29.785,30.392-53.133,59.545-61.847L368.72,79.225c-1.45,3.945,0.573,8.319,4.519,9.768
			c3.947,1.453,8.32-0.573,9.768-4.519l27.28-74.239c0.923-2.511,0.46-5.323-1.221-7.404c-1.68-2.081-4.329-3.128-6.98-2.757
			c-40.899,5.74-73.97,35.183-84.734,74.446l-23.582-8.73c-2.108-0.779-4.45-0.588-6.402,0.522c-1.952,1.11-3.315,3.025-3.723,5.234
			l-11.211,60.677c-2.131,11.529-7.636,22.003-15.921,30.288l-17.102,17.102c-2.972,2.972-2.972,7.791,0,10.762
			c2.972,2.973,7.792,2.973,10.763,0.001l17.102-17.102c10.473-10.474,17.433-23.713,20.125-38.286l9.568-51.784l146.4,54.194
			c3.937,1.458,8.315-0.55,9.777-4.488l29.057-78.286c21.907,34.033,17.695,79.77-11.764,109.228
			c-5.554,5.554-10.691,9.638-15.693,12.477c-3.015,1.703-36.881,16.317-36.881,16.317l-72.626,30.549
			c-8.136,3.411-15.439,8.319-21.707,14.586l-15.751,15.751c-2.972,2.972-2.972,7.791,0,10.762c1.486,1.486,3.434,2.229,5.381,2.229
			c1.947,0,3.896-0.743,5.381-2.229l15.751-15.751c4.863-4.863,10.525-8.668,16.837-11.315l89.579-37.68
			c0.074-0.029,0.148-0.06,0.221-0.091c1.673-0.725,16.484-7.155,21.313-9.882c6.221-3.532,12.421-8.425,18.955-14.959
			C519.517,136.299,521.443,74.515,485.585,33.956z"/>
	</g>
</g>
<g>
	<g>
		<path d="M267.958,325.728l-92.062-92.063c-2.972-2.973-7.791-2.972-10.762,0c-2.972,2.972-2.972,7.791,0,10.762l4.732,4.732
			L17.703,401.322C6.764,412.26,0.741,426.803,0.741,442.272c0,15.469,6.024,30.011,16.962,40.949
			c10.947,10.947,25.492,16.975,40.957,16.975s30.008-6.025,40.949-16.967l152.163-152.163l5.424,5.424
			c1.486,1.486,3.434,2.229,5.381,2.229c1.947,0,3.896-0.743,5.381-2.229C270.93,333.518,270.93,328.699,267.958,325.728z
			 M88.846,472.466c-8.067,8.067-18.788,12.51-30.187,12.51s-22.123-4.445-30.194-12.517c-16.645-16.646-16.645-43.728,0-60.374
			l152.163-152.163l60.381,60.381L88.846,472.466z"/>
	</g>
</g>
<g>
	<g>
		<path d="M492.422,429.646l-12.844-12.843c-2.972-2.972-7.791-2.972-10.762,0c-2.972,2.972-2.972,7.791,0,10.762l12.845,12.845
			c6.233,6.232,9.665,14.525,9.665,23.349c0,8.824-3.433,17.116-9.665,23.35c-6.236,6.237-14.529,9.671-23.35,9.671
			c-8.82,0-17.112-3.435-23.35-9.671l-75.74-75.739c5.485-10.13,3.951-23.083-4.601-31.635c-8.552-8.552-21.505-10.086-31.635-4.601
			l-6.225-6.225l46.699-46.699l6.217,6.217c-2.104,3.867-3.221,8.22-3.221,12.744c0,7.139,2.78,13.85,7.829,18.899
			c8.552,8.552,21.505,10.086,31.635,4.601l42.615,42.615c2.972,2.972,7.791,2.972,10.762,0c2.972-2.972,2.972-7.791,0-10.762
			l-47.216-47.216c-2.972-2.972-7.791-2.972-10.762,0c-4.486,4.486-11.785,4.486-16.271,0s-4.486-11.786,0-16.272
			c1.428-1.427,2.229-3.363,2.229-5.381s-0.802-3.954-2.229-5.381l-16.207-16.207c-2.971-2.972-7.79-2.972-10.762,0l-1.216,1.216
			l-16.728-16.728c-1.427-1.428-3.363-2.229-5.381-2.229s-3.954,0.802-5.381,2.229l-3.931,3.931L125.364,94.407l-4.42-31.344
			c-0.35-2.48-1.898-4.63-4.14-5.748L62.223,30.1c-2.927-1.459-6.463-0.885-8.777,1.43L26.081,58.894
			c-2.315,2.315-2.89,5.849-1.43,8.777l27.216,54.581c1.118,2.242,3.267,3.79,5.748,4.14l31.343,4.421l22.743,22.743
			c2.972,2.972,7.791,2.972,10.762,0c2.972-2.972,2.972-7.791,0-10.762l-24.542-24.542c-1.168-1.168-2.684-1.924-4.319-2.154
			l-29.9-4.217L40.717,65.782l19.617-19.618l46.097,22.986l4.217,29.901c0.23,1.635,0.986,3.151,2.154,4.319l201.876,201.876
			l-14.881,14.881L138.466,158.795c-2.972-2.972-7.791-2.972-10.762,0c-2.972,2.972-2.972,7.791,0,10.762l161.332,161.332
			l-3.931,3.931c-2.972,2.972-2.972,7.791,0,10.762l16.728,16.728l-1.216,1.216c-2.972,2.972-2.972,7.791,0,10.762l16.207,16.207
			c2.972,2.972,7.791,2.972,10.762,0c4.486-4.486,11.785-4.486,16.271,0c2.174,2.174,3.371,5.063,3.371,8.136
			c0,3.074-1.197,5.961-3.371,8.136c-1.428,1.427-2.229,3.363-2.229,5.381c0,2.018,0.802,3.954,2.229,5.381l80.341,80.341
			c9.111,9.112,21.226,14.13,34.112,14.13s25.001-5.018,34.112-14.13c9.108-9.107,14.124-21.222,14.124-34.112
			C506.546,450.868,501.53,438.753,492.422,429.646z M301.249,340.202l33.505-33.505l11.347,11.346l-33.505,33.505L301.249,340.202z
			"/>
	</g>
</g>
<g>
</g>
<g>
</g>
<g>
</g>
<g>
</g>
<g>
</g>
<g>
</g>
<g>
</g>
<g>
</g>
<g>
</g>
<g>
</g>
<g>
</g>
<g>
</g>
<g>
</g>
<g>
</g>
<g>
</g>
</svg>
