<?xml version="1.0" encoding="utf-8"?>
<!-- Generator: Adobe Illustrator 19.0.0, SVG Export Plug-In . SVG Version: 6.00 Build 0)  -->
<svg version="1.1" id="Слой_1" xmlns="http://www.w3.org/2000/svg" xmlns:xlink="http://www.w3.org/1999/xlink" x="0px" y="0px"
	 viewBox="0 0 500 463" enable-background="new 0 0 500 463" xml:space="preserve">
<path fill="#5A4F4A" d="M419.1,389.3c3.7-9.8,7.3-19.1,10.8-28.5c0.5-1.5,1.2-2.2,2.9-2.1c1.8,0.2,3.7,0.1,5.5,0
	c1.2-0.1,1.6,0.3,1.6,1.5c0,19.2,0,38.4,0,57.6c0,1.2-0.3,1.6-1.5,1.6c-2-0.1-4-0.1-6,0c-1.7,0.1-2-0.5-2-2.1c0.1-9.9,0-19.9,0-29.8
	c0-0.7,0-1.5,0-2.2c-0.1,0-0.3-0.1-0.4-0.1c-0.3,0.6-0.5,1.2-0.8,1.9c-2.1,5.7-4.3,11.4-6.4,17.2c-0.5,1.5-1.2,2-2.8,1.9
	c-3.8-0.1-3.8,0-5.1-3.5c-2-5.4-4-10.7-5.9-16.1c-0.2-0.6-0.5-1.2-0.8-1.9c-0.7,0.8-0.4,1.6-0.4,2.3c0,10-0.1,20,0,30.1
	c0,2.1-0.6,2.7-2.6,2.5c-1.6-0.2-3.2-0.2-4.8,0c-1.8,0.2-2.1-0.5-2.1-2.2c0.1-15.5,0-30.9,0-46.4c0-3.4,0.1-6.9,0-10.3
	c-0.1-1.6,0.5-1.9,1.9-1.9c2.4,0.1,5.2-0.7,7,0.3c1.8,1,2,4.1,2.8,6.3c2.8,7.4,5.5,14.9,8.3,22.3
	C418.6,388.1,418.8,388.5,419.1,389.3z M265.3,382.3c0,0.7,0,1.5,0,2.2c0,9.3,0,18.5,0,27.8c0,2.3-1,5.5,0.5,6.8
	c1.3,1.2,4.4,0.2,6.6,0.4c2.1,0.2,2.3-0.7,2.3-2.5c-0.1-17.1,0-34.1,0-51.2c0-1.8-0.1-3.7,0-5.5c0.1-1.2-0.3-1.6-1.6-1.6
	c-1.9,0.1-3.8,0.2-5.7,0c-1.6-0.2-2.2,0.5-2.6,2c-3.6,11.2-7.3,22.3-11,33.5c-0.3,0.8-0.2,1.8-1.3,2.4c0-10.4,0-20.7,0-30.9
	c0-2.2,0.8-5.2-0.4-6.4c-1.3-1.4-4.3-0.2-6.6-0.5c-2-0.2-2.4,0.5-2.4,2.4c0.1,17.1,0,34.1,0.1,51.2c0,2.3-1,5.6,0.5,6.8
	c1.4,1.2,4.5,0.3,6.9,0.4c1.4,0.1,2-0.4,2.4-1.7c1.2-4,2.6-8,4-11.9c2.6-7.8,5.3-15.7,7.9-23.5C265.1,382.3,265.2,382.3,265.3,382.3
	z M361.3,417.5c0,1.3,0.1,2,1.8,2c7.8-0.1,15.6-0.1,23.4,0c1.3,0,2-0.3,1.9-1.8c-0.1-1.7-0.1-3.5,0-5.3c0.1-1.6-0.5-1.9-2-1.9
	c-4.5,0.1-9,0-13.5,0.1c-1.7,0-2-0.5-2-2.1c0.1-4.4,0.1-8.9,0-13.3c-0.1-1.8,0.6-2.1,2.2-2.1c3.7,0.1,7.5,0,11.2,0.1
	c1.5,0,1.9-0.4,1.8-1.8c-0.1-1.8-0.1-3.7,0-5.5c0.1-1.4-0.3-1.9-1.8-1.8c-3.8,0.1-7.6,0-11.5,0.1c-1.4,0-2-0.3-2-1.9
	c0.1-4.2,0.1-8.4,0-12.6c-0.1-1.7,0.6-2,2.1-2c4.5,0.1,9,0,13.5,0.1c1.4,0,1.9-0.4,1.8-1.8c-0.1-1.8-0.1-3.5,0-5.3
	c0.1-1.5-0.4-1.9-1.9-1.9c-7.7,0.1-15.4,0.1-23.2,0c-1.7,0-2,0.5-2,2.1c0.1,9.4,0,18.8,0,28.2C361.3,398.5,361.3,408,361.3,417.5z
	 M213,374.9c0-1.4,0.1-2.8,0.5-4.1c0.7-2.3,2.5-3.7,4.7-3.7c2.3,0,3.8,1.3,4.6,3.4c0.5,1.3-0.2,3.3,1.3,3.7c1.2,0.3,2.8-0.5,4.2-0.9
	c1.1-0.3,2.2-0.7,3.3-0.9c0.9-0.2,1.1-0.6,1-1.4c-0.3-3.4-1.1-6.6-3.6-9.1c-3.4-3.3-7.6-3.8-12.1-3.7c-6.4,0.2-11.2,4-12.7,10.2
	c-0.8,3.5-0.9,7.1-0.8,10.7c0.2,9.7-0.5,19.4,0.3,29.1c0.6,6.5,4.4,10.5,10.8,11.4c1.7,0.2,3.4,0.2,5,0.2
	c6.7-0.2,11.4-4.3,12.6-10.8c0.7-3.9,0.7-3.9-3.2-4.6c-0.6-0.1-1.2-0.2-1.8-0.3c-1.2-0.2-2.6-0.7-3.6-0.3c-1.1,0.5-0.5,2.2-0.9,3.3
	c-0.9,2.6-2.5,4-5,3.9c-2.4-0.1-4.1-1.7-4.6-4.3c-0.2-0.9-0.2-1.8-0.2-2.7c0-4.8,0-9.6,0-14.4C213,384.7,213,379.8,213,374.9z
	 M287.3,389.5c0,6.3-0.2,12.5,0.1,18.8c0.3,6.5,4.4,10.6,10.7,11.5c1.4,0.2,2.7,0.2,4.1,0.2c8.2,0,13.4-5,14-13.2
	c0.1-1.4-0.4-1.9-1.7-2c-2-0.2-3.9-0.5-5.9-0.8c-1.5-0.3-2,0.1-2.1,1.7c-0.1,2.1-0.8,4.1-2.9,5.1c-3.6,1.7-7-0.8-7.1-5.3
	c-0.1-10.5,0-21,0-31.4c0-1.4,0.3-2.7,0.9-4c0.9-1.9,2.4-2.8,4.4-2.8c1.9,0,3.4,0.9,4.2,2.7c0.4,1,0.8,2.2,0.9,3.3
	c0,1.4,0.7,1.4,1.7,1.2c2.1-0.6,4.3-1.2,6.4-1.7c1-0.2,1.2-0.7,1.2-1.6c-0.3-3.9-1.3-7.6-4.8-10c-5.2-3.6-10.9-3.7-16.6-1.4
	c-5.3,2.2-7.3,6.8-7.5,12.1C287.1,377.7,287.3,383.6,287.3,389.5C287.3,389.5,287.3,389.5,287.3,389.5z M332.8,412.5
	c0,2.3-1,5.3,0.4,6.6c1.2,1.1,4.2,0.2,6.4,0.4c2.2,0.2,2.8-0.5,2.8-2.7c-0.1-15.6,0-31.2-0.1-46.8c0-1.7,0.3-2.5,2.2-2.3
	c2,0.2,4,0,6,0.1c1.2,0,1.6-0.3,1.6-1.5c-0.1-2-0.1-4,0-6c0-1-0.2-1.5-1.4-1.5c-8.8,0-17.6,0-26.4,0c-1,0-1.3,0.4-1.3,1.3
	c0.1,2.1,0.1,4.1,0,6.2c0,1.1,0.4,1.5,1.5,1.4c2.1-0.1,4.3,0.1,6.4,0c1.5-0.1,1.9,0.5,1.9,1.9c-0.1,8,0,16,0,24.1
	C332.8,400,332.8,406.2,332.8,412.5z M496.4,366.2c0-2.4,1.1-5.7-0.5-7c-1.5-1.2-4.7-0.3-7.1-0.4c-1.6-0.1-1.9,0.5-1.9,1.9
	c0.1,7.6,0,15.1,0,22.7c0,11.4,0,22.8,0,34.2c0,1.5,0.3,2,1.9,1.9c1.8-0.1,3.7-0.2,5.5,0c1.8,0.2,2.2-0.5,2.1-2.2
	c-0.1-9.3,0-18.6,0-28C496.4,381.6,496.5,373.9,496.4,366.2z M481.1,409.8c-1.8,5.9-6.2,9.2-12.4,9.5c-4.8,0.2-9.6,0-14.4,0.2
	c-1.7,0-1.6-0.9-1.6-2c0-9.5,0-18.9,0-28.4c0-9.3,0-18.6,0-28c0-1.7,0.3-2.5,2.2-2.3c2.4,0.3,5.6-1,7,0.5c1.2,1.3,0.4,4.5,0.4,6.8
	c0,4.8,0,9.6,0,14.4c0,1.3,0.3,1.7,1.6,1.7c2.5-0.1,5-0.1,7.5,0.4c4.9,1.1,8.3,3.8,9.7,8.6C482.9,397.5,483,403.7,481.1,409.8z
	 M472.3,394.8c-0.7-2-2.3-3.2-4.4-3.5c-1.4-0.2-2.7-0.1-4.1-0.2c-1.2-0.1-1.6,0.4-1.5,1.6c0.1,2.7,0,5.3,0,8c0,2.7,0,5.5,0,8.2
	c0,0.6-0.3,1.2,0.5,1.6c2.6,1.1,7.8-0.6,9-3.2C473.7,403.2,473.7,399,472.3,394.8z M488.6,451.2c-0.4,1.3,0,3,1.4,3.9
	c1.3,0.9,2.8,1,4-0.1c0.8-0.8,1.5-1.4,2.7-0.6c0.8,0.5,0.8,0.9,0.3,1.6c-1.4,2-3.5,2.7-5.8,2.4c-2.4-0.3-4.2-1.4-4.9-3.8
	c-0.9-3.3-1-6.7,0-9.9c0.9-2.7,2.9-4.1,5.6-4.1c3,0,4.8,1.5,5.7,4.3c1.5,4.8,0.8,5.8-4.4,5.8c-0.5,0-1.1-0.1-1.6,0
	C490.6,450.8,489,449.9,488.6,451.2z M488.7,447.2c0.3,1.4,1.8,0.3,2.7,0.6c0.1,0,0.3,0,0.5,0c0.8,0,1.5,0,2.3,0c0.6,0,1.1,0,1-0.8
	c-0.2-1.3-0.4-2.6-1.7-3.3c-1.2-0.7-2.5-0.6-3.6,0.2C488.9,444.7,488.4,446.1,488.7,447.2z M296.2,445.9c0.5,2.8,0.3,5.6-0.2,8.4
	c-0.5,2.8-2.7,4.5-6,4.5c-3,0-5.3-1.6-5.8-4.4c-0.3-1.6-0.4-3.2-0.6-4.6c0.1-1.5,0.2-2.8,0.4-4c0.5-3.5,2.8-5.4,6.2-5.4
	C293.6,440.5,295.6,442.4,296.2,445.9z M293.7,449.7c-0.1-1.2-0.1-2.6-0.4-3.9c-0.3-1.6-1.4-2.5-3.1-2.6c-1.7,0-2.9,0.8-3.2,2.4
	c-0.5,2.6-0.7,5.3-0.1,7.9c0.4,1.7,1.6,2.6,3.3,2.5c1.8-0.1,2.8-1.1,3.1-2.8C293.5,452.2,293.5,451,293.7,449.7z M259.4,461.7
	c0.1,1.3-0.6,1.3-1.6,1.3c-1.1,0.1-1.2-0.5-1.2-1.4c-0.2-3.2-0.2-3.2-3.5-3.2c-1.8,0-3.7,0.1-5.5,0c-1.6-0.1-2.1,0.5-1.9,1.9
	c0.1,0.5,0,1.1,0,1.6c0.1,1-0.5,1.1-1.3,1.1c-0.8,0-1.6,0.1-1.5-1.1c0-1.2,0.1-2.4,0-3.7c-0.1-1.3,0-2.2,1.5-2.8
	c1.3-0.5,1.5-2,1.6-3.3c0.2-3.3,0.5-6.5,0.6-9.8c0-1.4,0.5-1.9,1.9-1.8c2.6,0.1,5.2,0.1,7.8,0c1.1,0,1.5,0.3,1.5,1.4
	c-0.1,2.1,0,4.1,0,6.2c0,1.5-0.1,3.1,0,4.6c0.1,1.1-0.9,2.9,1.4,3.2c0.1,0,0.2,0.7,0.2,1.1C259.3,458.5,259.3,460.1,259.4,461.7z
	 M254.9,445.2c0.1-1.6-0.4-2.2-2-2c-0.5,0.1-1.1,0.1-1.6,0c-1.5-0.2-2,0.4-2,1.9c0,3.5-0.3,7-1.1,10.5c1.8,0,3.5-0.1,5.1,0
	c1.2,0.1,1.6-0.3,1.6-1.5C254.8,451.2,254.7,448.2,254.9,445.2z M314.3,440.5c-0.9,0-1.6,0.1-1.6,1.3c0.1,1.6,0,3.2,0,4.8
	c0,0.5,0.1,1.2-0.7,1.2c-1.8,0-3.8,0.6-5.4-0.3c-0.9-0.5-0.2-2.4-0.3-3.7c0-0.6-0.1-1.2,0-1.8c0.1-1.2-0.4-1.6-1.6-1.6
	c-1.2,0-1.4,0.5-1.4,1.5c0.1,2.5,0,5,0,7.6c0,2.4,0,4.7,0,7.1c0,1.1,0,1.8,1.5,1.8c1.6,0,1.4-0.9,1.4-1.9c0-0.5,0-0.9,0-1.4
	c0-4.7,0-4.6,4.7-4.6c1.2,0,1.8,0.3,1.7,1.6c-0.1,1.6,0.1,3.2,0,4.8c-0.1,1.4,0.7,1.4,1.7,1.4c1.2,0.1,1.4-0.5,1.4-1.5
	c0-5-0.1-10.1,0-15.1C315.8,440.6,315.3,440.5,314.3,440.5z M335,446.1c0,1.8,0,3.5,0,5.3c0,1.7,0,3.4,0,5c0,1.8-1.3,2.9-2.6,1.8
	c-1-0.8-1.5-0.3-2.2-0.1c-4.6,1.3-8-1.2-7.5-5.6c0.3-2.7,2.1-4.4,5.1-4.6c0.7-0.1,1.4,0.1,2.1,0c0.7-0.2,2,0.7,2.1-0.9
	c0.1-1.3,0.3-2.7-1.3-3.3c-1.6-0.7-3.2-0.6-4.5,0.6c-1.1,1-1.7,0.1-2.3-0.4c-0.7-0.7,0.2-1.2,0.6-1.6c2.2-2,4.8-2,7.5-1.1
	C334.4,441.8,335,443.9,335,446.1z M332,452.2c0.1-2.4-1.5-1.5-2.5-1.7c-2.9,0-4.2,0.7-4.1,2.5c0.1,2,1.4,2.5,3.1,2.5
	C331,455.7,331.9,454.7,332,452.2z M235.8,440.6c-1.2-0.3-2.3,0-3,1.3c-2,3.7-4.3,7.2-6.4,10.8c-0.2,0-0.3-0.1-0.5-0.1
	c0-3.5,0-7,0-10.5c0-1.1-0.1-1.7-1.4-1.7c-1.3,0-1.5,0.5-1.5,1.6c0,4.9,0,9.8,0,14.7c0,0.6-0.4,1.5,0.7,1.6c0.8,0,1.9,0.4,2.5-0.6
	c0.3-0.6,0.7-1.2,1.1-1.8c1.9-3.1,3.9-6.2,5.8-9.4c0.5,3.4,0.5,6.7,0.5,10c0,1-0.1,1.9,1.5,1.9c1.5,0,1.5-0.7,1.5-1.8
	c0-4.6,0-9.2-0.1-13.8C236.4,442.1,237.1,440.9,235.8,440.6z M277.2,448.3c0.5,1.9-0.3,2.6-2.4,2.4c-1.9-0.2-3.8,0-5.7-0.1
	c-1.3-0.1-1.6,0.5-1.3,1.6c0.3,1.4,0.6,2.7,2.2,3.2c1.5,0.5,2.8,0.2,3.7-0.9c1-1.2,1.8-0.5,2.5,0.1c1.1,0.9-0.1,1.4-0.5,1.9
	c-1.6,1.8-3.7,2.1-6.1,1.7c-2.3-0.5-3.6-1.9-4.2-4c-0.7-2.8-0.8-5.6-0.2-8.4c0.8-3.7,3-5.5,6.3-5.3c3.3,0.2,5.3,2.4,5.7,6
	C277.3,447.1,277.2,447.6,277.2,448.3z M274.2,446c-0.1-0.4-0.3-0.9-0.5-1.3c-0.9-1.5-2.3-1.8-3.8-1.3c-1.8,0.6-2.3,2.3-2,3.7
	c0.3,1.5,1.9,0.4,2.9,0.7c0.1,0,0.2,0,0.2,0c0.6,0,1.2-0.1,1.8,0C274.5,448,274.7,447.2,274.2,446z M215.7,455.2
	c-0.8,2.4-2.9,3-5.1,3.2c-6.8,0.6-6.8,0.5-6.8-6.1c0-3.4,0.1-6.7,0-10.1c-0.1-1.5,0.5-1.8,1.8-1.7c1.5,0.1,3,0,4.6,0
	c2.2,0.1,4.1,0.6,5.1,2.8c1,2.2,0.6,4.1-1.4,5.7C216.2,450.7,216.6,452.8,215.7,455.2z M206.9,447.4c0.3,1,1.5,0.3,2.2,0.5
	c0.4,0,0.7,0,1,0c1.3,0,2.5-0.3,2.7-1.8c0.2-1.1-0.2-2.1-1.2-2.4c-1.5-0.5-3.4-0.9-4.5,0.1C206.2,444.3,206.6,446.2,206.9,447.4z
	 M213.1,452.9c0-1-0.5-1.7-1.5-2.1c-0.8-0.3-1.6-0.2-2.9-0.3c-1.8-0.6-2.3,0.6-2,2.5c0.1,0.9-0.7,2.3,0.7,2.5c1.4,0.3,3,0.4,4.5-0.4
	C212.9,454.7,213.2,453.9,213.1,452.9z M420.5,461.5c0,1.1-0.3,1.5-1.4,1.5c-1.1,0-1.4-0.4-1.4-1.5c-0.1-3.2-0.1-3.2-3.3-3.2
	c-1.8,0-3.5,0.1-5.3,0c-1.8-0.1-2.6,0.4-2.3,2.2c0.1,0.6,0.1,1.2,0,1.8c-0.2,0.9-1,0.5-1.5,0.6c-0.6,0.1-1.2,0-1.2-0.9
	c0-1.4,0-2.7,0-4.1c0-1.1,0-1.9,1.4-2.4c1.4-0.5,1.6-2.1,1.7-3.5c0.2-3.2,0.5-6.4,0.6-9.6c0-1.4,0.3-2.1,2-2c2.4,0.2,4.9,0.1,7.3,0
	c1.6-0.1,1.9,0.6,1.8,2c-0.1,1.9,0,3.8,0,5.7c0,1.7-0.1,3.4,0,5c0.1,1-0.7,2.4,1.3,2.6c0.5,0,0.3,0.8,0.3,1.2
	C420.5,458.5,420.4,460,420.5,461.5z M416,454.2c-0.1-2.4,0-4.9,0-7.3c0-3.8,0-3.7-3.7-3.7c-1.5,0-1.8,0.5-1.8,1.8
	c-0.1,3.5-0.2,7-1.2,10.6c1.8,0,3.6-0.1,5.3,0C415.7,455.7,416,455.3,416,454.2z M457.6,442.3c0-1.6-1-2.4-2.4-1.7
	c-1.2,0.6-0.6,1.8-0.6,2.6c-0.1,4.9,0,4.8-4.9,4.7c-1.2,0-1.7-0.3-1.6-1.5c0.1-1.4-0.1-2.9,0-4.3c0.1-1.3-0.4-1.5-1.6-1.5
	c-1.2,0-1.4,0.5-1.3,1.5c0,2.4,0,4.9,0,7.3c0,2.4,0,4.9,0,7.3c0,0.1,0,0.2,0,0.2c-0.2,1.2,0.3,1.6,1.5,1.6c1.1,0,1.4-0.4,1.4-1.5
	c-0.1-1.7,0-3.4,0-5c0-1,0.3-1.3,1.3-1.3c5.1-0.4,5.1-0.4,5.1,4.6c0,0.5,0,0.9,0,1.4c-0.1,1.1-0.1,1.9,1.5,1.9
	c1.4,0,1.6-0.6,1.6-1.8C457.6,451.9,457.6,447.1,457.6,442.3z M398.4,445.3c0.3,2.7,0.3,5.3,0,8c-0.3,3.3-2.7,5.2-6.2,5
	c-3.4-0.1-5.4-2-5.7-5.3c0-0.4,0-0.8,0-1.1c0-0.7,0.1-1.3-1-1.4c-1.2,0-1.1,0.7-1.1,1.5c0,1.4,0,2.7,0,4.1c0,1.1,0.4,2.3-1.5,2.3
	c-2.1,0-1.4-1.4-1.4-2.4c-0.1-2.2,0-4.4,0-6.6c0-2.1-0.1-4.3,0-6.4c0.1-1-0.9-2.5,1.4-2.6c2.4,0,1.4,1.7,1.5,2.7c0.1,1,0,2,0,3
	c0,0.8-0.3,1.7,1.1,1.7c1.3,0,1-0.9,1-1.6c0.4-4.5,4-6.8,8.3-5.4C397,441.6,398.2,443.1,398.4,445.3z M395.7,449.6
	c0-1.1,0.1-2.1,0-3.2c-0.1-1.8-0.9-3.1-2.9-3.2c-2-0.1-3.2,1-3.4,2.9c-0.2,2.2-0.2,4.4,0,6.6c0.2,1.8,1.4,2.8,3.2,2.8
	c2,0,2.8-1.3,3-3.1C395.8,451.6,395.7,450.6,395.7,449.6z M438.6,445.4c1.2,4.8,0.8,5.2-4.5,5.2c-0.5,0-1.1-0.1-1.6,0
	c-1.1,0.2-2.7-0.8-3.2,0.7c-0.4,1.3,0.1,2.8,1.3,3.7c1.4,1,2.9,1,4.2-0.2c0.8-0.7,1.4-1.2,2.5-0.5c0.9,0.6,0.8,1,0.3,1.7
	c-1.5,2-3.5,2.6-5.9,2.3c-2.3-0.3-4.1-1.4-4.8-3.7c-1-3.4-1-6.8,0.1-10.1c0.9-2.7,2.9-4.1,5.7-4c2.8,0.1,4.7,1.5,5.5,4.2
	C438.5,445,438.6,445.2,438.6,445.4z M435.8,446c-0.2-0.5-0.3-1-0.6-1.5c-1-1.4-2.4-1.6-3.8-1c-1.6,0.6-2.1,2.3-1.8,3.6
	c0.3,1.5,1.9,0.4,2.8,0.7c0.1,0,0.2,0,0.2,0c0.6,0,1.2-0.1,1.8,0C436,448.1,436.3,447.3,435.8,446z M478.8,442.2
	c0-0.6,0.5-1.6-0.6-1.7c-0.9-0.1-2-0.5-2.6,0.7c-0.4,0.8-0.9,1.6-1.4,2.4c-1.8,3-3.7,6.1-5.5,9.1c-0.1,0-0.3-0.1-0.4-0.1
	c0-3.3,0-6.7,0-10c0-0.9,0.5-2.1-1.4-2.2c-1.8,0-1.5,1-1.5,2.1c0,4.6,0,9.2,0,13.8c0,0.7-0.6,1.8,0.7,2.1c1.1,0.2,2.1,0.2,2.9-1.2
	c1.8-3.3,3.9-6.4,5.9-9.6c0.2-0.3,0.3-1.2,1.1-0.7c0,3.3,0.1,6.6,0,9.9c0,1.3,0.4,1.7,1.7,1.7c1.5,0,1.3-0.8,1.3-1.8
	C478.8,451.9,478.8,447,478.8,442.2z M354.2,447.1c0.2,2.3,0.4,4.7-0.3,7.1c-0.9,3.3-3.2,4.9-6.6,4.7c-3-0.2-4.9-2-5.4-5.2
	c-0.7-4.1-0.3-8.2,0.3-12.3c0.5-3.6,2.5-6.1,6.1-7.3c1-0.3,2-0.8,3-1.2c0.7-0.2,1.4-0.9,2,0.4c0.6,1.4-0.4,1.5-1.2,1.8
	c-1.5,0.7-3.1,1.3-4.5,2.2c-1.9,1.1-2.8,2.9-2.9,5.2C349.9,439.4,353.6,441.2,354.2,447.1z M351.6,450.3c-0.1-1.3-0.2-2.5-0.4-3.7
	c-0.2-1.7-1.1-2.8-3-2.9c-1.9-0.1-3.1,1-3.4,2.7c-0.5,2.2-0.4,4.6-0.1,6.8c0.2,1.7,1.3,2.8,3.1,2.8c1.8,0.1,2.9-0.8,3.4-2.5
	C351.5,452.5,351.5,451.4,351.6,450.3z M372.2,440.5c-2.6,0.1-5.2,0.1-7.8,0c-1.3,0-1.7,0.4-1.7,1.7c0.1,3.2,0,6.4-0.1,9.6
	c0,1.7-0.4,3.3-2,4.1c-1.2,0.7-0.7,1.5-0.3,2.3c0.6,1.1,1.3,0.2,1.9,0c1.6-0.7,2.3-2.1,2.8-3.7c0.7-2.6,0.4-5.3,0.4-8
	c0.1-3.3,0-3.2,3.3-3.3c1.6,0,2.1,0.5,2,2.1c-0.1,3.9,0,7.8-0.1,11.7c0,1.3,0.6,1.4,1.6,1.5c1.2,0,1.3-0.5,1.3-1.5
	c0-2.4,0-4.9,0-7.3c0-2.5-0.1-5,0-7.6C373.7,440.8,373.4,440.4,372.2,440.5z"/>
<path fill="#3FBABC" d="M165.4,237.8c6.4-1.6,12.3-4,17.9-7.1c20.9-11.5,36-28.2,44.3-50.6c11.3-30.7-0.3-59.1-25.8-76.6
	c-10.7-7.4-22.7-12.3-34.7-16.9c-13-5-26.2-9.7-39.3-14.5c-1.2-0.4-2.5-0.9-3.8-0.9c-4.3-0.1-7.2-2.5-9.7-5.7
	c-2.1-2.7-4.2-5.4-6.4-8.1c-0.7-0.9-0.8-1.4,0.3-2.1c1.9-1.2,3.8-2.6,5.5-4.1c3-2.4,6.3-3.1,10.1-2.7c17.3,2.1,34.6,3.8,51.8,6.5
	c13.9,2.2,28,4.1,41.5,8.4c17.9,5.7,33.5,15.4,48.2,26.9c8.6,6.7,16.6,14.1,22.1,23.6c13.4,23.3,12.2,46.7-0.5,69.8
	c-6.4,11.5-15.7,20.6-25.7,29.1c-24,20.5-50.9,36.5-79.2,50.1c-3.4,1.6-6.7,3.4-9.5,5.9c-4.2,3.7-6.3,8.4-6.3,14c0,9,1.1,18,1.6,27
	c0.4,7.9,1.1,15.8,1.6,23.8c1.1,15.5,2.2,31.1,3.1,46.6c0.4,7.4,1.5,14.8,1.1,22.2c-0.1,2.1-0.3,4.3-0.8,6.3
	c-1.9,7.3-6.2,10.1-13.6,8.6c-9.9-2-18.6-6.8-26.9-12.4c-12.3-8.3-20.4-19.6-23.7-34.2c-1.8-8-1.9-16.1-2-24.2
	c-0.2-13.8,0.2-27.5,1-41.3c1-18.3,2.7-36.6,4.8-54.8c2-16.8,4.1-33.7,6.7-50.4c3.5-23.2,6.4-46.6,10.9-69.7
	c1.1-5.7,4-10.5,7.8-14.8c1.1-1.2,2.2-1.6,3.9-1.1c4.9,1.3,9.5,3.3,13.6,6.4c4.6,3.5,6.4,8.6,7.7,13.9c1.7,6.6,1.9,13.3,2,20
	c0.7,27,0.1,54,0.3,81C165.3,236.5,165.3,237.1,165.4,237.8z M1.3,281.8c1.4,17.9,4.4,35.4,9.3,52.7c3.3,11.5,7.4,22.6,14.1,32.7
	c3.2,4.9,7.9,6.7,13.3,7.3c3.7,0.4,6.5-1.1,8.7-4c4.1-5.2,5.9-11.2,6-17.7c0.1-17.4,0.5-34.8,1.4-52.3c0.9-17.2,2.1-34.5,3.7-51.7
	c1.5-17,3.5-33.9,5.7-50.8c2.4-17.9,5.1-35.7,8.1-53.4c4.8-29.1,10.6-58.1,16.4-87c2.7-13.2,5.3-26.5,7.7-39.8
	C97.4,8.6,94,3.3,85,0.5c-0.2-0.1-0.4-0.1-0.7-0.2c-1.3-0.5-2.4-0.3-3.7,0.3c-13.7,7.1-27.5,14-41.2,21.1
	c-6.4,3.3-12.9,6.4-18.7,10.6c-4.2,3.1-6.9,6.9-6.1,12.5c0.4,2.4,1.4,4.5,2.6,6.5c1,1.6,1.4,3.3,1.2,5.2
	c-1.6,14.3-3.2,28.5-4.8,42.8c-2,17.6-4.3,35.2-6.2,52.8c-1.8,16.2-3.4,32.4-4.8,48.6C1.2,217.7,0.2,234.6,0,252
	C0.2,261.7,0.5,271.7,1.3,281.8z M354.2,192.2c0.3,0.5,0.8,0.9,1.2,1.4c7.3,7.5,15.4,14.1,23.7,20.6c9.5,7.4,19.7,13.8,27.8,22.8
	c1.6,1.8,3.7,3.2,5.9,4.4c0.7,0.3,1.4,0.9,2-0.1c0.5-0.9-0.4-1.2-1-1.5c-3.6-2-6.5-4.8-9.3-7.7c-3-3.2-6.4-6.1-10-8.8
	c-13.1-10-25.9-20.4-38.3-31.4c-0.4-0.3-0.8-0.7-1.2-1C354.3,191.1,353.8,191.5,354.2,192.2z M401,223.6
	c-8.7-6.9-17.5-13.8-26.2-20.7c-1-0.8-1.9-1.6-2.8-2.3c-0.5-0.4-1.2-1-1.8-0.3c-0.7,0.7,0,1.2,0.5,1.7c0.4,0.4,0.9,0.8,1.4,1.2
	c7.5,6,15,12.1,22.6,18c2.1,1.6,4.2,3.2,6.3,4.9c0.4,0.3,0.9,0.7,1.4,0.3c0.2-0.2,0.4-0.4,0.5-0.6
	C402.5,224.6,401.7,224.1,401,223.6z M500,256.8c-4.3,0.3-8.2,0.5-12,1c-13.8,1.6-27.7,1.7-41.5,3.6c-0.8,0.1-1.7,0.3-1.9-0.7
	c-0.2-1.2,0.9-1,1.6-1.1c6.3-0.9,12.6-1.4,18.9-1.7c9.4-0.5,18.8-1.7,28.8-2.5c-3.3-2.6-6.1-4.9-8.9-7.1c-12.2-9.7-24-20-37-28.6
	c-13.2-8.8-26.6-17.4-40.4-25.3c-4.6-2.7-9.1-5.6-13.6-8.5c-4.4-2.9-9-5.3-14-6.6c-4.3-1.1-8.9-1.1-13.4-1.7
	c-6.5-0.8-13-1.6-19.5-2.6c-6.1-0.9-10.8,1.3-13.8,6.6c-2.4,4.3-3.2,9-4.6,13.6c-3.7,12.1-7.6,24-12,35.8c-1.7,4.6-0.9,7.7,2.4,11.2
	c20,20.7,39.8,41.7,59.6,62.6c6.7,7,13.4,14.1,20.1,21.1c2.9,3,5.2,6.4,7.6,9.8c0.7,1,1.5,1.9,2.6,2.6c1.9,1.3,2.6,1.1,3.5-1
	c5.2-12.9,8.9-26.2,13.1-39.4c3.1-9.8,7-19.2,10.6-28.8c0.4-1.1,0.8-2.3,0.9-3.5c0.1-0.6,0.5-1.2,1.2-1c0.7,0.2,0.8,0.7,0.7,1.5
	c-0.7,3.8-2.5,7.2-3.7,10.8c-5.9,17.5-11.8,35-17.6,52.6c-1.3,4-1.4,8.3-2.8,12.2c-0.3,0.8-0.4,1.6-0.7,2.4
	c-0.9,2.3-2.6,2.7-4.5,1.3c-0.9-0.6-1.7-1.4-2.2-2.3c-2.5-5.6-7-9.5-11.1-13.9c-11.6-12.3-23.2-24.5-34.9-36.8
	c-0.4-0.4-0.9-0.8-1.5-1.4c-1.2,4.8-2.3,9.3-3.5,13.9c-2.1,8.3-4.3,16.7-7.2,24.8c-0.7,2-2.3,3.4-4.2,4c-5.7,1.9-11.5,3.2-17.4,3.7
	c-4.6,0.4-8.2-1.9-11.8-5.1c-0.1,1.1-0.1,1.9-0.1,2.6c-0.3,3.2-1.9,5.1-5,5.2c-7.3,0.2-14.5-0.3-21-4.2c-0.7-0.4-1.5-0.4-2.2-0.4
	c-9.7,0-19.4-0.1-29.1,0c-2.3,0-4.7,0.8-7,0.9c-4.2,0.2-5.6-1.1-5.6-5.3c0-16.6,0.1-33.3,0.2-49.9c0.1-6,0.9-12,0.7-18.1
	c-0.1-1.8,1.1-1.8,2.2-1.9c4.4-0.4,8.7-0.2,13.1,0c7.6,0.3,15.1,0.6,22.7,0.9c6.6,0.3,13.1,0.6,19.7,0.8c1.7,0.1,2.1,0.7,1.2,2.1
	c-0.3,0.5-0.3,1-0.4,1.5c-0.4,10-0.5,20-0.5,30c0,2.1,0.5,3.8,2.2,5.3c1.8,1.6,3.4,3.5,5.3,5.5c1.5-4.6,1.6-9,2.2-13.3
	c1.3-9.2,1.8-18.5,2.7-27.8c0.4-3.7,1.5-7.2,3.2-10.5c1.4-2.8,1-4.7-1.4-6.6c-5.6-4.4-7-10.1-4.6-18.2c3.2-10.6,6.8-21.1,9.8-31.7
	c1.8-6.7,4.3-13.2,5.6-20.1c1-5.6,4.4-7.8,10.2-7.2c13.3,1.4,26.6,2.8,39.9,4.1c1.6,0.2,3,0.9,4.5,1.6c15.1,7.1,29,16.3,43,25.2
	c22,14.1,42.3,30.5,62.9,46.4C493.4,251.7,496.5,254.1,500,256.8z M283.5,289.5c-0.4-0.4-0.7-0.8-1.1-1.1c-0.4-0.3-0.9-0.4-1.3-0.1
	c-0.5,0.3-0.4,0.7-0.3,1.2c0.5,1.5,1.1,3,2.3,4.2c8.2,7.8,16.4,15.5,24.6,23.3c0.5,0.5,1.1,1.4,1.9,1.1c0.7-0.4,0.8-1.4,0.8-2.9
	c0-2.3-2.4-3.6-4.3-5.2C298.2,303.4,290.4,297,283.5,289.5z M287,331.7c-0.6-0.8-0.9-1.2-1.2-1.6c-4.9-5.6-9.7-11.2-15.5-15.9
	c-6.2-5.1-7.8-12.4-4.7-18.9c0.8-1.7,2.1-2.7,3.9-3.2c1.9-0.5,3.8-0.4,5.7-0.6c1.3-0.2,2.1-0.8,2.4-2c0.9-3.3,3.1-4.4,6.4-3.4
	c2.3,0.8,4.2,2.2,5.9,3.9c1.1,1.1,1.9,1.3,2.7-0.2c0.9-1.7,1.7-1.4,2.8-0.2c1.9,2.1,3.9,4.1,6.2,6.6c0.1-4.6,0.3-8.5,0.7-12.5
	c0.6-5.6,1.4-11.2,1.1-16.9c0-1,0-1.9-1.4-1.7c-12.6,1-25.1-2-37.7-1.4c-4,0.2-8.1-0.5-12.1,0c-1.7,0.2-3.2,1.2-3,2.9
	c0.3,2.3-0.6,4.4-0.4,6.5c0.4,4.8,0,9.6,0,14.4c-0.2,14.1-0.2,28.1-0.3,42.2c0,1.8,0.6,2.3,2.3,2.3c11.3-0.1,22.6,0,33.9,0
	C285.5,331.9,286.1,331.8,287,331.7z M313.9,332.8c-0.7-2.2-1.6-4.4-3.4-6.1c-8-7.4-16-14.7-23.7-22.3c-4.2-4.2-9.3-6.5-14.7-8.5
	c-1.7-0.6-3-0.1-4,1.3c-0.8,1.1-1.3,2.4-1.5,3.8c-0.6,4.7,1.2,8.4,4.4,11.5c5.3,5.3,10.6,10.6,15.5,16.3c4.9,5.6,10.9,8.4,18.9,8.3
	c1.7,0.1,3.9-0.3,6.2-0.7C313.7,335.9,314.5,334.6,313.9,332.8z M354.3,288.5c-0.4,0.1-0.7,0.3-1.1,0.4c-3.6,1.5-7.1,3.1-10.7,4.6
	c-6.2,2.6-9.2,1.9-13.9-3c-3-3.1-6.4-5.9-9.6-8.9c-1,7.1-2,14.6-3.2,22c-0.6,4-0.6,8.1-2.3,11.9c-3.3,7.8,2.2,17.2,10.7,18
	c6.1,0.6,12.1,0.5,18.1-1.1c3.4-0.9,5.1-2.8,6.1-6c2.5-7.6,3.4-15.5,5.5-23.1c0.9-3.4,2.7-6.6,3-10.2c0.1-1.4-0.1-1.6-1.4-1.2
	c-2.7,0.9-5.4,1.7-8.1,2.5c-0.7,0.2-1.5,0.7-2.4,0.3c0.4-1.1,1.4-1,2.1-1.3c2.7-0.9,5.4-1.8,7.8-3.2c0.9-0.5,2.8-0.5,2.2-1.9
	C356.9,287.3,355.3,288.2,354.3,288.5z M322.7,254.1c-2.5,5.8-3.6,11.4-3.6,17.2c0,3.1,1,5.9,3.1,8.2c2,2.2,4.2,4.2,6.1,6.5
	c3.5,4.3,7.6,5.9,12.8,3.5c0.2-0.1,0.5-0.1,0.7-0.1c4.1-1.2,8.2-2.4,11.5-3.3C343.2,275.5,333,264.9,322.7,254.1z M498.4,264.3
	c-6.5,18.8-13.4,37.5-21.9,55.6c-1.2,2.5-1.9,5.3-3.2,7.8c-1.4,2.6-3.5,4.4-5.8,6c-1.2,0.8-2.5,1.2-3.9,1.2c-3.6,0.1-5.7-2.5-4.7-6
	c0.4-1.4,1.2-2.6,2.1-3.8c1.7-2.3,3.3-4.7,4.4-7.4c-2.8,2.5-5.4,5.1-8.4,7.2c-2.9,2-5.9,3.6-9.4,3.8c-3.2,0.1-5.2-1.4-5.3-4.6
	c-0.7-17,3.4-32.3,16.1-44.4c1.8-1.7,3.8-3.1,6.4-3.4c4.8-0.6,8.6,2.8,9.1,8.1c0.3,3.1,0.3,6.2-0.4,9.5c0.8-0.6,0.8-1.3,1-2
	c0.7-4,0.8-8.1-0.3-12.1c-2.4-8.7-11.7-11.9-18.9-6.4c-11,8.5-17.2,19.6-18.6,33.5c-0.2,2-0.2,4.1-0.4,6.2
	c-0.4,4.9,0.7,9.4,3.4,13.5c0.4,0.6,0.7,1.2,1,1.8c0.3,0.5,0.2,1-0.2,1.5c-0.5,0.7-1,0.2-1.4,0c-3.5-1.6-6.9-3.3-10.4-4.8
	c-1.4-0.6-0.9-1.3-0.7-2.2c4.3-13.6,8.2-27.4,13.1-40.8c1.1-2.9,2.1-5.9,3-8.9c0.7-2.1,2.1-3.2,4.2-3.4c13.5-1.3,26.9-2.6,40.4-3.8
	c0.4,0,0.7,0,1.4,0.1c-1.7,4.2-3.4,8.3-5.1,12.4c-7,17-14.1,34-21.1,51c-0.3,0.6-1.1,1.4-0.3,2c0.6,0.5,1.4,0,2.2-0.2
	c3.4-1,5.5-3.5,6.8-6.7c8.2-20.3,16.4-40.6,24.7-60.9c0.3-0.8,0.3-2.4,1.4-2C499.8,262.3,498.6,263.5,498.4,264.3z M459,290.3
	c1.3,0.9,2.5,1.1,3.7,0.1c1.6-1.3,2.6-3,2.8-5c0.1-1.5-0.4-2.8-1.7-3.5c-1.4-0.8-2.5,0.2-3.5,1.1c-1.2,1.1-2,2.5-2.5,4.1
	C457.4,288.4,457.7,289.4,459,290.3z M455.8,301.8c0,0.6,2.2,3.8,2.7,3.9c0.6,0.1,2.9-2.8,3-3.6c0.1-0.9-1.7-3.3-2.5-3.3
	C458.2,298.7,455.8,301,455.8,301.8z M469.2,302.2c2-4.8,3.3-9.8,3.4-14.9c-0.2-1.4-0.3-2.6-0.5-3.8c-0.1-0.7-0.4-1.3-0.6-2
	c-0.4-1.1-1.2-2-2.3-2.4c-1.1-0.4-1.6-0.2-1.3,1.1c0.3,1.7,0.8,3.5,0.7,5.2c-0.3,11-3.6,21.1-10.3,29.9c-2.7,3.5-6.1,6.4-9.8,8.9
	c-0.5,0.3-1.2,0.7-0.7,1.4c0.4,0.6,0.9,0.2,1.4,0.1c2.5-0.6,4.7-1.7,6.6-3.4C462.1,316.9,466.1,309.8,469.2,302.2z M327.5,265.6
	c-2,0-3.7,0.7-4.9,2.5c-1.2,1.9-1.1,3.7-0.1,5.6c0.8,1.5,2.3,2.2,3.6,3.1c1.8,1.3,3.6,2,5.7,0.8c2-1.1,2-3.2,2.2-4.9
	C334.1,268.8,331.2,265.7,327.5,265.6z"/>
</svg>
